<svg width="136" height="79" viewBox="0 0 136 79" fill="none" xmlns="http://www.w3.org/2000/svg">
<path d="M123.128 13.0646C118.195 6.16055 109.575 -1.93144 101.079 -4.86944C95.8495 -6.67744 90.0739 -7.98346 84.6108 -9.03246C81.5528 -9.61946 64.7423 -7.24545 57.4258 -0.22445C50.1083 6.79655 43.3942 15.0085 41.4224 23.1055C39.6251 30.4845 39.291 40.3526 43.0872 47.2925C46.8908 54.2465 55.6414 59.4266 62.8318 62.9826C78.7685 70.8645 99.3902 66.3715 113.491 57.0235C128.014 47.3965 133.291 27.2886 123.128 13.0646ZM91.563 63.4325C88.6774 64.0645 85.8328 64.4656 83.0301 64.6206C83.445 64.3686 83.8447 64.1075 84.224 63.8605C85.8263 62.8205 87.81 61.5545 88.5783 59.8265C88.7205 59.5065 88.3025 59.1765 87.9814 59.3385C86.3306 60.1715 85.0957 61.6776 83.5602 62.6996C82.4956 63.4076 81.1918 63.9516 80.1068 64.6906C79.0906 64.6806 78.0821 64.6225 77.0778 64.5415C78.0002 64.0585 78.8633 63.4585 79.7296 62.7915C81.7629 61.2255 84.002 59.7056 85.503 57.6636C85.7185 57.3706 85.3576 57.0015 85.0203 57.1525C81.1293 58.8965 78.5874 62.8575 74.5187 64.2485C73.4541 64.0925 72.397 63.8886 71.3464 63.6436C72.0264 63.3436 72.6966 62.9586 73.3668 62.5616C75.9734 61.0196 78.7426 59.3626 80.5022 56.9666C80.6983 56.6996 80.3664 56.3345 80.0507 56.4895C78.289 57.3545 76.8602 58.5265 75.2633 59.6185C73.619 60.7425 71.0189 63.0035 68.6763 62.9125C67.8154 62.6445 66.9609 62.3326 66.1086 61.9995C67.4415 61.5256 68.7237 60.7466 69.8939 60.1336C72.6018 58.7146 75.4842 57.0845 77.5562 54.9165C77.8148 54.6465 77.5508 54.1555 77.1468 54.3505C72.9261 56.3855 68.9091 59.9635 64.2186 61.2005C63.2434 60.7575 62.2737 60.2745 61.3125 59.7355C66.9006 57.5705 73.2655 54.9915 76.0294 49.7365C76.1609 49.4875 75.7579 49.2595 75.5564 49.4415C70.9284 53.6165 65.8888 56.4906 60.0938 59.0396C59.151 58.4926 58.2254 57.9335 57.3159 57.3635C62.5323 55.5485 67.6204 52.4735 71.298 48.7225C71.6589 48.3545 71.1924 47.8696 70.7527 48.1476C65.9049 51.2106 61.1347 53.9506 56.0154 56.5256C54.6587 55.6326 53.3614 54.7006 52.1373 53.7166C54.9152 53.2976 57.2707 51.9736 59.8018 50.6216C63.113 48.8526 66.5008 46.9685 69.3099 44.5455C69.5955 44.2985 69.2819 43.8246 68.9188 44.0056C63.3727 46.7646 57.5638 52.0135 51.1568 52.9045C50.1913 52.0745 49.2873 51.2025 48.4489 50.2865C54.7051 47.9365 60.8104 45.0065 66.1431 41.1636C66.5019 40.9046 66.101 40.3785 65.7056 40.5595C59.6046 43.3355 53.6642 46.4396 47.63 49.3496C46.8919 48.4626 46.2281 47.5245 45.629 46.5405C49.8034 45.4085 53.8344 43.6416 57.0379 40.8806C57.4129 40.5576 57.0024 39.9396 56.525 40.1736C52.6944 42.0486 48.9942 43.9415 44.9556 45.3525C44.3209 44.1405 43.8102 42.8435 43.4136 41.4675C44.6916 41.7825 46.1021 40.9406 47.3326 40.3446C50.4284 38.8446 53.5414 37.2255 56.1705 35.0725C56.469 34.8275 56.1425 34.3995 55.788 34.5455C53.731 35.3945 51.8097 36.4565 49.8562 37.4885C48.7431 38.0765 44.3576 41.0946 43.127 40.1866C43.1087 40.1726 43.0882 40.1706 43.0689 40.1596C42.9395 39.5676 42.8296 38.9625 42.7477 38.3385C42.6702 37.7475 42.6076 37.1565 42.5548 36.5665C45.3952 35.3345 48.2248 34.1025 50.8949 32.5625C51.0857 32.4525 51.0081 32.1026 50.7549 32.1816C47.9005 33.0646 45.1851 34.2266 42.4697 35.4106C42.4213 34.6366 42.4105 33.8656 42.4061 33.0956C43.9675 32.4446 45.4663 31.7805 46.9307 30.9075C47.2798 30.6995 47.1484 30.1195 46.6785 30.2185C45.1043 30.5485 43.7563 31.0846 42.4223 31.7846C42.5904 25.3156 44.3015 19.0315 47.8304 13.4125C47.5255 14.5525 47.2992 15.7136 47.1624 16.8745C45.7788 20.4216 45.2498 24.4085 48.8261 27.0445C50.8702 28.5515 54.0909 29.0365 56.5864 28.7315C59.166 28.4165 60.9774 26.2126 63.1809 25.3926C62.9686 27.2376 62.7467 29.2706 64.6528 30.2116C65.2476 30.5046 65.9243 30.0805 66.5202 30.0925C68.0363 30.1205 69.3638 30.2275 70.6579 30.3645C70.8206 30.3815 70.9564 30.5155 71.1374 30.5195C72.647 30.5545 73.1664 30.4025 74.5381 29.7066C77.817 28.0425 79.6036 26.4976 83.0333 28.8756C90.1752 33.8276 81.8868 34.9855 79.0077 38.7185C75.7525 42.9385 85.1765 49.1396 88.4662 51.0396C91.9574 53.0566 96.107 54.4326 99.8191 56.0516C102.462 57.2046 105.225 57.5825 108.044 57.4255C102.829 60.2385 97.0024 62.2405 91.563 63.4325ZM119.133 48.8286C116.937 51.4106 114.183 53.6676 111.126 55.6166C110.917 55.2816 110.525 55.0506 109.995 55.1386C104.002 56.1406 100.595 53.4985 95.4551 51.6525C91.0146 50.0575 87.7055 48.5445 84.2499 45.3175C81.4634 42.7145 79.248 41.7515 83.3275 37.9115C84.2111 37.0795 85.6798 36.7155 86.615 35.9425C88.2529 34.5875 88.3089 34.0936 87.88 32.0906C86.7389 26.7696 84.9018 24.2046 78.7695 25.7586C77.0714 26.1886 75.7859 27.1685 74.1987 27.7145C72.5403 28.2845 71.6729 27.9026 70.034 27.8016C67.0568 27.6186 65.0429 28.4146 65.2476 24.2766C65.2789 23.6426 64.725 23.2695 64.0903 23.3215C60.402 23.6245 59.2867 26.9426 54.912 27.0696C50.0868 27.2096 48.2776 24.6936 47.9231 21.5646C48.1009 18.7716 48.5998 15.9365 49.5513 13.3205C49.9769 12.1495 50.5221 11.0505 51.1201 9.98054C54.2827 6.22654 56.1414 3.39856 61.473 -0.494439C66.8047 -4.38644 85.8963 -9.64045 95.3786 -3.75045C97.7578 -0.630451 98.7405 2.77054 97.3332 6.66154C96.7255 8.34254 94.9497 10.2365 95.0176 12.0845C95.0413 12.7265 95.3635 13.4626 95.7104 14.0226C95.843 14.2366 97.9711 16.2165 98.3203 16.4935C99.6047 17.9155 99.8126 18.9855 99.6747 20.5885C96.5649 18.7015 91.1234 17.5305 89.492 21.0575C87.9943 24.2955 89.2712 32.0356 94.1815 31.4826C96.0165 31.2756 97.7362 30.1726 99.5626 29.9136C99.4592 29.9286 101.183 29.8585 101.24 29.8565C104.946 29.7355 104.98 28.7796 106.866 32.4016C109.284 37.0446 106.81 35.6206 104.83 38.6866C104.504 39.1896 104.193 39.7695 104.14 40.3595C103.72 45.0235 111.077 51.2715 115.708 51.8305C115.69 51.8815 115.677 51.9355 115.677 51.9985C115.677 52.0475 115.755 52.0855 115.785 52.0335C115.886 51.9155 116.014 51.8366 116.17 51.7976C116.25 51.7766 116.26 51.6786 116.181 51.6476C116.168 51.6426 116.158 51.6455 116.145 51.6415C116.139 51.6115 116.129 51.5806 116.101 51.5555C114.269 49.8605 111.959 48.8385 110.19 47.0335C109.049 45.8685 107.229 43.9826 106.803 42.4186C106.169 40.0956 107.672 39.3605 108.665 37.8045C110.078 35.5875 111.178 33.4866 109.663 30.8966C107.809 27.7256 104.784 27.8076 101.499 28.1296C99.9311 28.2836 98.498 28.2475 96.9615 28.1365C96.4065 28.0965 95.6566 28.8065 95.2202 28.7315C93.0996 28.3705 91.5501 26.6656 91.0653 24.9876C89.6526 20.1036 96.7471 19.7886 99.721 22.7636C100.273 23.3156 101.212 22.9876 101.316 22.2686C101.655 19.8956 102.02 17.1495 100.432 15.0555C98.6069 12.6505 96.9755 13.2105 98.0132 9.47355C98.9571 6.07355 100.819 5.11255 100.002 1.42655C99.651 -0.159449 99.0131 -1.61544 98.1823 -2.98144C100.669 -2.23344 103.069 -1.28744 105.264 0.130561C113.379 5.37456 121.971 12.9695 124.521 22.0805C126.867 30.4565 125.031 41.8926 119.133 48.8286Z" fill="white" fill-opacity="0.03"/>
<path d="M111.339 49.5757C111.869 50.3447 112.797 51.0027 113.584 51.5477C114.494 52.1777 115.533 52.7077 116.599 53.0727C117.311 53.3167 117.799 52.2457 117.118 51.9307C116.197 51.5037 115.267 51.1057 114.355 50.6577C113.465 50.2207 112.609 49.6157 111.697 49.2447C111.478 49.1557 111.184 49.3507 111.339 49.5757Z" fill="white" fill-opacity="0.03"/>
<path d="M105.43 57.3122C106.834 57.4212 108.105 56.9973 109.447 56.6733C110.864 56.3313 112.327 56.3162 113.744 56.0082C114.529 55.8382 114.327 54.7612 113.559 54.7382C110.835 54.6562 107.896 55.6373 105.27 56.2113C104.57 56.3653 104.785 57.2622 105.43 57.3122Z" fill="white" fill-opacity="0.03"/>
<path d="M42.6765 49.525C40.9039 50.924 38.8394 52.713 38.2597 54.884C38.1864 55.156 38.5463 55.355 38.7661 55.158C39.5883 54.419 40.2057 53.534 40.9007 52.695C41.6496 51.79 42.4879 50.962 43.3909 50.189C43.8736 49.774 43.1657 49.139 42.6765 49.525Z" fill="white" fill-opacity="0.03"/>
<path d="M35.8955 59.5133C35.0163 60.3593 34.2922 61.3133 33.7836 62.3923C33.3946 63.2163 32.8235 64.3193 33.2955 65.1823C33.4119 65.3963 33.7577 65.4253 33.9301 65.2583C34.5292 64.6763 34.54 63.7213 34.8547 62.9843C35.2835 61.9773 35.9376 61.0763 36.7295 60.2863C37.2457 59.7733 36.4246 59.0053 35.8955 59.5133Z" fill="white" fill-opacity="0.03"/>
<path d="M33.8557 69.1392C33.3859 70.3562 33.4085 72.1012 35.2371 72.1662C37.0699 72.2312 38.6647 70.4582 39.6463 69.2482C39.7691 69.0972 39.531 68.8912 39.3694 68.9912C38.4664 69.5552 37.502 70.0722 36.5463 70.5572C36.1605 70.7522 35.5603 71.1402 35.1024 71.0602C34.1735 70.8972 34.4343 69.9052 34.5862 69.3262C34.7026 68.8812 34.0184 68.7172 33.8557 69.1392Z" fill="white" fill-opacity="0.03"/>
<path d="M46.8589 65.2083C47.7016 64.5373 48.5431 63.8653 49.3804 63.1893C49.709 62.9233 49.2758 62.3943 48.9116 62.6253C47.9936 63.2043 47.0799 63.7893 46.1661 64.3743C45.4894 64.8073 46.2243 65.7133 46.8589 65.2083Z" fill="white" fill-opacity="0.03"/>
<path d="M60.0264 55.2663C62.494 52.9553 65.0186 50.6853 67.4301 48.3263C67.5443 48.2143 67.3752 48.0673 67.2513 48.1603C64.524 50.2203 61.8841 52.3903 59.2043 54.5043C58.6396 54.9503 59.493 55.7653 60.0264 55.2663Z" fill="white" fill-opacity="0.03"/>
<path d="M73.4211 42.8935C75.56 41.3275 77.6817 39.7945 79.6503 38.0455C79.9154 37.8105 79.5684 37.3745 79.2527 37.5675C76.9414 38.9805 74.8262 40.5865 72.6712 42.1975C72.1367 42.5965 72.8921 43.2805 73.4211 42.8935Z" fill="white" fill-opacity="0.03"/>
<path d="M86.3054 33.3744C86.7494 33.3744 86.7505 32.7334 86.3054 32.7334C85.8604 32.7344 85.8604 33.3744 86.3054 33.3744Z" fill="white" fill-opacity="0.03"/>
<path d="M96.9181 26.012C98.2488 24.701 99.6938 23.434 100.813 21.956C101.031 21.669 100.594 21.255 100.283 21.464C98.71 22.526 97.3685 23.884 95.9774 25.139C95.3621 25.694 96.3308 26.59 96.9181 26.012Z" fill="white" fill-opacity="0.03"/>
<path d="M107.798 17.2146C108.716 16.3386 109.866 15.4636 110.489 14.3716C110.715 13.9746 110.261 13.5506 109.832 13.7626C108.657 14.3426 107.717 15.4106 106.775 16.2646C106.106 16.8696 107.147 17.8356 107.798 17.2146Z" fill="white" fill-opacity="0.03"/>
<path d="M116.941 8.61669C118.458 7.41669 120.003 6.18969 121.185 4.69069C121.295 4.55169 121.07 4.42968 120.947 4.52068C119.393 5.67168 118.006 7.00369 116.476 8.18569C116.153 8.43569 116.621 8.87069 116.941 8.61669Z" fill="white" fill-opacity="0.03"/>
<path d="M124.298 2.04466C124.772 1.46566 125.246 0.886663 125.719 0.307663C126.176 -0.250337 126.662 -0.745338 126.789 -1.45534C126.857 -1.83434 126.483 -2.13033 126.096 -1.94933C125.397 -1.62133 125.022 -1.03431 124.581 -0.456314C124.104 0.169686 123.627 0.796684 123.148 1.42268C122.648 2.07868 123.791 2.66366 124.298 2.04466Z" fill="white" fill-opacity="0.03"/>
<path d="M111.67 0.588989C112.309 0.588989 112.31 -0.333008 111.67 -0.333008C111.031 -0.333008 111.03 0.588989 111.67 0.588989Z" fill="white" fill-opacity="0.03"/>
<path d="M65.3842 3.37655C65.6234 4.80655 65.7602 6.30856 66.2968 7.67556C66.4401 8.04156 66.9929 7.97855 67.0242 7.58455C67.1395 6.13455 66.8302 4.65456 66.6405 3.21856C66.5296 2.37056 65.2408 2.51755 65.3842 3.37655Z" fill="white" fill-opacity="0.03"/>
<path d="M67.502 15.2596C67.8651 17.0706 68.1625 18.9096 68.7153 20.6816C68.78 20.8896 69.1334 20.8546 69.1291 20.6296C69.0871 18.7886 68.78 16.9545 68.544 15.1285C68.4524 14.4245 67.3598 14.5516 67.502 15.2596Z" fill="white" fill-opacity="0.03"/>
<path d="M69.8387 26.8842C70.2686 29.1932 70.775 31.5292 71.9 33.6452C72.0842 33.9912 72.5637 33.7242 72.5152 33.4042C72.1672 31.1042 71.5045 28.8532 71.1209 26.5562C70.9905 25.7782 69.6921 26.1022 69.8387 26.8842Z" fill="white" fill-opacity="0.03"/>
<path d="M72.7348 39.6593C72.876 41.7763 73.2995 43.9193 74.5257 45.7423C74.7983 46.1483 75.6065 46.0183 75.5612 45.4823C75.3867 43.4163 74.6529 41.4483 73.8932 39.5143C73.6788 38.9723 72.6907 39.0023 72.7348 39.6593Z" fill="white" fill-opacity="0.03"/>
<path d="M76.0001 52.679C76.6972 54.301 77.319 55.974 78.1282 57.551C78.3157 57.917 78.8911 57.65 78.8049 57.286C78.4105 55.621 77.8082 53.984 77.2985 52.346C77.055 51.561 75.6844 51.944 76.0001 52.679Z" fill="white" fill-opacity="0.03"/>
<path d="M82.8458 65.7672C83.3296 66.6642 83.7973 67.5642 84.2499 68.4742C84.4212 68.8192 84.9944 68.5711 84.8964 68.2211C84.6216 67.2391 84.3652 66.2562 84.1238 65.2672C83.9083 64.3882 82.3696 64.8862 82.8458 65.7672Z" fill="white" fill-opacity="0.03"/>
<path d="M87.4961 74.6844C88.1028 76.2134 89.2504 77.6714 90.7955 78.4974C91.9787 79.1294 93.7156 79.1864 94.1951 77.7614C94.2673 77.5464 93.9742 77.3114 93.762 77.4524C91.7944 78.7614 89.4378 75.5714 88.5726 74.2624C88.2385 73.7564 87.2569 74.0814 87.4961 74.6844Z" fill="white" fill-opacity="0.03"/>
<path d="M95.9712 71.149C95.593 69.808 95.5208 68.4021 95.0909 67.0781C94.995 66.7841 94.5101 66.7631 94.4249 67.0781C94.0413 68.5081 94.4077 70.049 94.8021 71.448C94.9993 72.148 96.1684 71.851 95.9712 71.149Z" fill="white" fill-opacity="0.03"/>
<path d="M49.0965 9.19997C47.185 8.69197 45.1452 8.67397 43.1723 8.51797C41.8361 8.41197 40.3341 8.18496 39.0302 8.59096C37.3892 9.10196 35.9658 10.955 37.4463 12.311C37.582 12.435 37.7674 12.305 37.7415 12.151C37.1047 8.33596 47.0029 10.073 49.0965 9.78795C49.4327 9.74195 49.3832 9.27597 49.0965 9.19997Z" fill="white" fill-opacity="0.03"/>
<path d="M39.7349 15.4282C41.0711 17.2662 43.0882 18.4012 45.4986 18.1452C45.6861 18.1252 45.7723 17.8452 45.5482 17.8072C43.5817 17.4732 41.5991 16.5842 40.403 15.0652C40.1153 14.6982 39.4515 15.0392 39.7349 15.4282Z" fill="white" fill-opacity="0.03"/>
<path d="M49.603 20.6285C52.1815 22.0965 54.8204 23.0765 57.8256 23.4465C58.0282 23.4715 58.0562 23.1755 57.873 23.1245C55.1372 22.3685 52.4337 21.3905 49.9769 20.0355C49.5653 19.8085 49.1968 20.3975 49.603 20.6285Z" fill="white" fill-opacity="0.03"/>
<path d="M65.3703 26.7456C68.9951 27.8106 72.5823 28.9696 76.3234 29.6366C76.6014 29.6856 76.8277 29.3036 76.5314 29.1796C73.0283 27.7156 69.3486 26.7356 65.6925 25.6606C64.9468 25.4426 64.6279 26.5276 65.3703 26.7456Z" fill="white" fill-opacity="0.03"/>
<path d="M79.8177 31.1211C82.7777 31.9021 85.7247 32.8581 88.8086 33.0791C89.0769 33.0981 89.1954 32.7061 88.9487 32.5991C86.1503 31.3801 83.0837 30.8631 80.0957 30.1881C79.4427 30.0401 79.169 30.9501 79.8177 31.1211Z" fill="white" fill-opacity="0.03"/>
<path d="M96.8704 35.3054C97.4124 35.3054 97.4134 34.5244 96.8704 34.5244C96.3284 34.5244 96.3284 35.3054 96.8704 35.3054Z" fill="white" fill-opacity="0.03"/>
<path d="M95.9499 35.2945C98.8086 35.9225 101.509 36.2305 104.453 36.1385C104.715 36.1305 104.801 35.7375 104.517 35.6935C101.749 35.2655 98.9691 34.8795 96.2042 34.4355C95.6072 34.3395 95.3389 35.1605 95.9499 35.2945Z" fill="white" fill-opacity="0.03"/>
<path d="M112.135 37.7738C114.752 37.6648 117.36 37.5408 119.966 37.2888C120.263 37.2608 120.277 36.8568 119.966 36.8508C117.352 36.8018 114.748 36.8818 112.135 36.9768C111.583 36.9968 111.582 37.7968 112.135 37.7738Z" fill="white" fill-opacity="0.03"/>
<path d="M126.909 38.4644C128.481 38.1534 130.043 37.8055 131.592 37.4045C132.55 37.1565 133.997 36.9924 134.731 36.2864C135.929 35.1344 134.656 32.5614 133.291 32.0414C133.102 31.9694 132.858 32.1524 132.875 32.3354C132.931 32.9064 133.158 33.2494 133.417 33.7784C133.741 34.4434 133.965 34.7064 133.517 35.3434C133.117 35.9104 132.764 35.9195 132.092 36.1165C130.288 36.6435 128.463 37.0984 126.623 37.5014C125.945 37.6484 126.233 38.5984 126.909 38.4644Z" fill="white" fill-opacity="0.03"/>
<path d="M130.723 30.1777C129.97 29.9977 129.214 29.8397 128.438 29.7727C128.114 29.7447 127.991 30.2077 128.272 30.3407C128.967 30.6687 129.701 30.9067 130.442 31.1267C131.092 31.3197 131.386 30.3357 130.723 30.1777Z" fill="white" fill-opacity="0.03"/>
<path d="M3.78492 25.7191C-1.58226 27.5871 1.50269 34.5381 5.14367 36.6611C9.86217 39.4121 16.8187 35.6631 18.3208 31.1331C20.1073 25.7451 15.7466 21.3291 10.0551 20.7741C3.60281 20.1451 -0.23859 26.9421 1.53071 32.1801C1.75268 32.8381 2.98644 32.9761 3.12221 32.1801C3.64158 29.1211 3.09206 25.4511 6.33004 23.4971C10.2975 21.1031 16.6786 23.8071 16.7056 28.3821C16.7239 31.5471 14.0365 33.9621 11.1207 35.1561C8.26742 36.3241 5.53698 35.4571 3.96594 33.0071C2.702 31.0361 1.88198 28.2611 4.19544 26.6191C4.62214 26.3141 4.4045 25.5041 3.78492 25.7191Z" fill="white" fill-opacity="0.03"/>
<path d="M13.9931 34.1851C13.6494 33.8981 13.3638 33.5831 13.0675 33.2551C12.8768 33.0431 12.5179 32.7571 12.449 32.4821C12.3692 32.1661 12.283 32.5651 12.5438 32.4311C13.1548 32.1181 13.6407 32.0781 13.895 31.3721C14.0933 30.8221 13.7442 29.4421 14.409 29.1641C15.16 28.8501 15.9887 29.8961 16.8194 29.7581C17.1028 29.7111 17.1933 29.4241 17.1599 29.2011C17.0156 28.2311 15.2053 27.7441 14.2926 27.8661C13.0427 28.0331 12.6763 29.0301 12.6192 30.0671C12.5987 30.4491 12.7205 30.8711 12.3143 31.1481C12.1494 31.2601 11.7906 31.2441 11.5945 31.3451C11.1279 31.5831 10.8736 31.9541 10.9415 32.4511C11.1042 33.6491 12.5222 34.4341 13.6321 34.7601C13.9801 34.8611 14.2689 34.4141 13.9931 34.1851Z" fill="white" fill-opacity="0.03"/>
<path d="M6.67563 26.0419C6.08407 26.7739 6.44289 27.6749 7.14975 28.2229C8.12491 28.9789 9.38346 28.7759 10.4513 28.3029C12.2615 27.5009 15.0426 25.6619 13.6419 23.5089C13.1742 22.7899 11.99 21.9129 11.0343 21.9259C10.4696 21.9339 10.1733 22.2669 10.5192 22.7469C10.8155 23.1569 11.5073 23.3889 11.9092 23.6799C12.7604 24.2959 12.8316 25.0589 12.0902 25.8009C11.2821 26.6109 7.51179 28.5759 7.67773 26.2949C7.71975 25.7459 6.96225 25.6879 6.67563 26.0419Z" fill="white" fill-opacity="0.03"/>
<path d="M6.65179 26.5695C6.64748 25.8425 6.78001 24.9314 7.14852 24.2864C7.51596 23.6404 8.10754 23.1544 8.56656 22.5704C8.73789 22.3524 8.50085 22.0934 8.26163 22.0764C7.10545 21.9954 6.21647 22.8815 5.76067 23.7845C5.23807 24.8195 5.1799 25.7984 5.83719 26.7734C6.06132 27.1094 6.65394 26.9815 6.65179 26.5695Z" fill="white" fill-opacity="0.03"/>
<path d="M3.7723 30.9389C4.20116 31.8879 5.01579 32.3239 6.02759 32.6749C6.60191 32.8739 7.92188 33.2239 8.03826 33.9309C8.12015 34.4309 7.14604 35.2009 6.87451 35.5969C7.33246 35.8449 7.79043 36.0939 8.24838 36.3419C9.10071 34.9479 8.9272 33.2709 7.93803 31.9689C6.85619 30.5439 5.02547 29.8609 3.23354 29.5869C2.75511 29.5139 2.10969 29.7849 2.17219 30.3379C2.45019 32.7919 4.45978 34.1389 6.44567 35.5129C6.30775 35.3459 6.16874 35.1789 6.03081 35.0119C6.05452 35.0749 6.07823 35.1389 6.10194 35.2029C6.13211 34.9849 6.16335 34.7679 6.19352 34.5499C6.46398 34.5319 6.73551 34.5129 7.00597 34.4949C6.80448 34.2779 6.42841 34.3169 6.22045 34.4949C5.89935 34.7699 5.84008 35.2059 6.09438 35.5429C6.43595 35.9949 7.00489 36.0579 7.4596 35.7059C7.51564 35.6629 7.57062 35.6199 7.62665 35.5769C7.95961 35.3199 7.92512 34.8749 7.76887 34.5509C7.42083 33.8269 6.17305 33.4209 5.53516 32.9039C4.69792 32.2259 3.95011 31.4039 3.84882 30.3389C3.49539 30.5889 3.14087 30.8389 2.78744 31.0899C4.95543 31.4559 8.37658 33.0299 6.87451 35.5989C6.38638 36.4339 7.71285 37.1559 8.24838 36.3439C8.9908 35.2169 10.1071 34.2069 8.97356 32.8969C7.87987 31.6329 5.46943 32.0189 4.66667 30.5919C4.41345 30.1439 3.55572 30.4599 3.7723 30.9389Z" fill="white" fill-opacity="0.03"/>
<path d="M6.55194 25.2924C6.15433 26.1674 6.46572 27.0684 7.00879 27.8324C7.26632 28.1954 7.75768 28.3374 8.17899 28.1174C9.48065 27.4384 9.71879 25.6984 8.57984 24.7734C8.0497 24.3424 7.3353 24.5404 7.09393 25.1374C6.76528 25.9504 6.86227 26.7694 7.33207 27.5164C7.66826 28.0494 8.34495 28.0354 8.81368 27.6934C9.84272 26.9444 10.708 26.0854 11.4903 25.1144C10.8944 25.0424 10.2985 24.9694 9.70262 24.8974C10.278 26.6474 13.2682 26.5254 13.3587 24.5744C13.4707 22.1504 10.0399 21.6944 8.14344 22.2574C5.26859 23.1104 6.18559 26.1744 7.80727 27.7104C8.57017 28.4334 9.70696 28.8264 10.7285 28.3014C11.1918 28.0634 11.529 27.6624 11.7693 27.2334C11.9008 26.9974 12.0624 26.1654 12.3728 26.0704C13.5871 25.6984 13.4772 23.7264 12.0517 23.8704C11.1638 23.9604 10.5258 24.3534 10.0647 25.0664C9.90088 25.3194 9.63907 25.7484 9.59489 26.0544C9.5561 26.1204 9.51731 26.1864 9.47852 26.2524C9.57657 26.2314 9.67569 26.2104 9.77375 26.1894C9.75543 26.0764 9.43972 25.8374 9.36214 25.7384C9.19081 25.5194 8.71561 24.9634 8.81151 24.6714C8.89124 24.4294 9.28669 24.4464 9.54961 24.4324C9.94183 24.4114 10.361 24.4204 10.7511 24.4674C10.7985 24.4734 11.2683 24.5994 11.3437 24.5884C11.4267 24.5754 11.4946 24.1444 11.5894 24.4144C11.3146 23.6314 10.292 23.5654 9.80176 24.1974C9.14016 25.0504 8.3568 25.7904 7.47969 26.4534C7.9732 26.5124 8.46778 26.5714 8.96129 26.6304C8.70376 26.2644 8.65527 25.9924 8.80828 25.5744C8.31262 25.6954 7.81696 25.8174 7.32237 25.9384C7.61654 26.1654 7.68656 26.5394 7.31589 26.7444C7.70596 26.8394 8.09602 26.9344 8.48609 27.0294C8.08202 26.4904 7.99258 25.9184 7.83526 25.2904C7.66932 24.6344 6.78253 24.7844 6.55194 25.2924Z" fill="white" fill-opacity="0.03"/>
<path d="M14.6745 33.0933C14.6971 33.0733 14.7198 33.0533 14.7413 33.0333C14.5797 33.1203 14.4191 33.2073 14.2575 33.2953C14.2855 33.2903 14.3146 33.2843 14.3426 33.2793C14.1476 33.2793 13.9536 33.2793 13.7586 33.2793C13.6368 33.1993 13.514 33.1203 13.3911 33.0403C13.3405 32.8673 13.2899 32.6943 13.2403 32.5213C13.5151 32.1413 13.5291 32.0293 13.2812 32.1823C13.6605 32.7843 14.0387 33.3853 14.418 33.9873C14.8415 33.7333 15.3189 33.4753 15.5387 33.0373C15.8361 32.4443 15.4966 31.5883 14.6702 31.6333C14.1002 31.6643 13.7317 31.8843 13.2812 32.1823C12.7867 32.5093 12.5507 33.0943 12.8772 33.6123C13.1864 34.1033 13.89 34.2703 14.418 33.9873C15.1788 33.5793 15.7822 32.7733 15.2801 31.9593C14.8383 31.2443 13.7618 31.0362 13.1261 31.6562C12.1541 32.6042 13.6562 34.0003 14.6745 33.0933Z" fill="white" fill-opacity="0.03"/>
<path d="M14.6227 32.4865C15.9545 32.1425 16.6668 30.9855 17.1516 29.8705C17.6031 28.8325 16.0062 28.1795 15.2509 28.8435C14.8166 29.2245 14.3824 29.6065 13.9492 29.9875C14.6151 30.2435 15.281 30.4995 15.9469 30.7555C15.8995 30.3495 15.8521 29.9435 15.8047 29.5375C15.0623 29.7245 14.321 29.9105 13.5785 30.0975C14.0882 30.7855 13.8436 32.1545 12.7629 32.2525C13.0279 32.8455 13.2919 33.4385 13.557 34.0315C14.016 33.6105 14.4696 33.1945 14.8953 32.7425C15.809 31.7735 14.4341 30.5185 13.3835 31.3395C12.89 31.7255 12.432 32.1385 11.9698 32.5575C11.3168 33.1485 11.7694 34.4215 12.7639 34.3365C15.3629 34.1155 17.3348 31.0925 15.642 28.9785C14.8145 27.9445 13.2607 28.5705 13.4589 29.8325C13.5225 30.2365 13.585 30.6405 13.6486 31.0445C13.779 31.8775 15.044 32.0535 15.6043 31.5235C16.0224 31.1275 16.4415 30.7315 16.8596 30.3365C16.226 29.9945 15.5925 29.6515 14.9589 29.3095C14.6636 30.0665 14.0581 30.6435 13.6917 31.3625C13.3954 31.9425 13.8846 32.6775 14.6227 32.4865Z" fill="white" fill-opacity="0.03"/>
<path d="M7.67676 23.8334C7.78882 24.4204 7.89765 25.0084 8.0151 25.5954C8.14979 26.2674 9.09908 26.3874 9.57319 25.9774C10.3727 25.2844 10.5193 24.1684 10.0269 23.2864C9.72406 22.7444 9.01287 22.6884 8.47734 22.9094C7.4914 23.3174 7.19079 24.3814 7.37936 25.2854C7.53452 26.0304 8.49136 26.2344 9.12495 25.9444C9.99667 25.5444 10.3242 24.2034 9.49453 23.6014C8.681 23.0104 7.6401 23.3904 7.5302 24.3564C7.51403 24.5034 7.49248 24.9714 7.56683 24.5774C7.58622 24.4754 7.67997 24.2584 7.57653 24.3834C7.71984 24.2504 7.86316 24.1174 8.0054 23.9854C7.97846 24.0034 7.95152 24.0224 7.92565 24.0414C8.50752 24.2614 9.08937 24.4804 9.67016 24.7004C9.56887 24.4374 9.69927 24.6734 9.62061 24.7254C9.16373 24.6704 8.70577 24.6154 8.2489 24.5614C8.33941 24.6494 8.34051 24.6704 8.25646 24.7554C8.77583 24.8824 9.29518 25.0104 9.81455 25.1374C9.64861 24.5634 9.47408 23.9924 9.30275 23.4204C9.00536 22.4334 7.49035 22.8574 7.67676 23.8334Z" fill="white" fill-opacity="0.03"/>
<path d="M5.08693 33.6526C5.28735 33.9426 5.59876 34.1016 5.82073 34.3736C6.4166 35.1036 7.62669 34.8806 7.69565 33.9026C7.74845 33.1496 7.56309 32.4336 7.10191 31.8046C6.75925 31.3386 6.32395 31.1156 5.71623 31.1406C5.22918 31.1596 4.67534 31.3166 4.3704 31.6836C3.27994 32.9956 5.31968 35.6226 6.97261 34.6916C7.42841 34.4346 7.67947 33.7966 7.34867 33.3586C7.10407 33.0336 6.80559 32.9436 6.53082 32.7286C6.46617 32.6776 6.40476 32.4826 6.38429 32.6166C6.20757 32.8296 6.03194 33.0426 5.85523 33.2556C5.866 33.2506 6.45324 33.2946 6.02438 33.2666C5.75715 33.1636 5.49102 33.0616 5.22379 32.9586C5.45654 33.2016 5.65049 33.5776 5.68282 33.9046C6.25499 33.6846 6.82822 33.4646 7.40039 33.2446C6.92736 32.8226 6.20434 32.4346 5.53412 32.6336C5.09341 32.7626 4.81647 33.2586 5.08693 33.6526Z" fill="white" fill-opacity="0.03"/>
</svg>
