<svg width="528" height="187" viewBox="0 0 528 187" fill="none" xmlns="http://www.w3.org/2000/svg">
<path d="M11.4642 185.068L20.8236 169.984C24.3738 160.811 36.7641 157.564 45.5705 161.871C54.3769 166.178 65.9357 159.997 74.5949 162.349C83.2541 164.7 84.6492 159.163 91.8431 142.058C99.037 124.953 110.983 129.42 119.788 133.704C128.593 137.988 139.304 129.82 148.081 133.733C156.857 137.646 161.187 145.256 168.803 133.754C176.419 122.252 186.637 120.328 194.626 113.777C202.615 107.226 210.886 104.433 219.255 102.926C227.624 101.419 236.089 101.198 244.418 99.1599C252.746 97.1217 260.938 93.2661 268.735 84.1748C276.533 75.0834 283.936 60.7563 292.267 58.7475C300.598 56.7387 309.581 50.1011 318.717 58.7744C327.852 67.4477 339.293 58.1258 347.826 58.804C356.359 59.4822 362.942 70.8038 370.522 58.8271C378.102 46.8504 384.525 44.8812 391.948 30.8157C399.371 16.7502 407.111 6.89199 415.666 7.86268C424.221 8.83336 438.088 11.5111 446.954 16.6119C455.821 21.7127 461.845 7.31726 470.131 4.7259C478.418 2.13454 484.472 20.4692 492.667 16.6584C500.862 12.8477 509.04 8.81101 513.129 6.79266L517.218 4.7743" stroke="url(#paint0_linear_1_844)" stroke-width="3.5" stroke-linecap="round"/>
<circle cx="469" cy="7.00049" r="5.5" fill="url(#paint1_linear_1_844)" stroke="#FCFCFC" stroke-width="3"/>
<defs>
<linearGradient id="paint0_linear_1_844" x1="-9.83845" y1="97.4582" x2="867.414" y2="-24.6372" gradientUnits="userSpaceOnUse">
<stop stop-color="#F33A56"/>
<stop offset="1" stop-color="#6E039F"/>
</linearGradient>
<linearGradient id="paint1_linear_1_844" x1="469" y1="0.000488386" x2="476" y2="31.5005" gradientUnits="userSpaceOnUse">
<stop stop-color="#F33A56"/>
<stop offset="1" stop-color="#6E039F"/>
</linearGradient>
</defs>
</svg>
