<svg width="101" height="19" viewBox="0 0 101 19" fill="none" xmlns="http://www.w3.org/2000/svg">
<path d="M0 11.7917L0.336339 9.7934C0.356124 9.69448 0.455047 9.65491 0.534186 9.71426C1.70148 10.4265 2.76985 10.842 3.85801 10.842C4.96595 10.842 5.69798 10.2484 5.69798 9.279C5.69798 8.54697 5.30229 8.05235 3.77887 7.55774L3.28425 7.39946C1.36514 6.76635 0.276985 5.46056 0.276985 3.67994C0.2572 1.56299 1.89933 0 4.35262 0C5.46056 0 6.68721 0.336339 7.79515 0.870525C7.85451 0.890309 7.87429 0.949663 7.87429 1.00902L7.49838 3.02705C7.4786 3.10619 7.37967 3.16554 7.30054 3.10619C6.23216 2.53244 5.14401 2.21588 4.39219 2.21588C3.36339 2.21588 2.8292 2.80942 2.8292 3.56124C2.8292 4.19435 3.16554 4.66918 4.49112 5.14401L5.04509 5.34186C7.18183 6.03432 8.32934 7.3401 8.32934 9.23943C8.32934 11.5147 6.60807 13.1172 3.9965 13.1172C2.63136 13.1172 1.22665 12.6424 0.0395694 11.9301C0.0197848 11.9104 0 11.851 0 11.7917Z" fill="#02218E"/>
<path d="M21.0895 0.256331V13.0174C21.0895 13.0966 21.0301 13.1361 20.9708 13.1361H18.5373C18.4581 13.1361 18.4186 13.0768 18.4186 13.0174V11.7116C18.4186 11.5929 18.2801 11.5336 18.2009 11.6325C17.2908 12.5624 16.0444 13.0966 14.6001 13.0966C11.7314 13.0966 9.83203 11.1577 9.83203 7.91299V0.63224C9.83203 0.572886 9.8716 0.513532 9.95074 0.513532L12.4634 0.137624C12.5425 0.117839 12.6019 0.177193 12.6019 0.256331V7.55687C12.6019 9.49576 13.7098 10.5641 15.2926 10.5641C17.0139 10.5641 18.2405 9.3177 18.2405 7.35902V0.63224C18.2405 0.572886 18.2801 0.513532 18.3592 0.513532L20.9114 0.137624C21.0104 0.117839 21.0895 0.177193 21.0895 0.256331Z" fill="#02218E"/>
<path d="M49.303 8.80489L50.1141 10.8031C50.1339 10.8625 50.1141 10.9219 50.0746 10.9416C48.5512 12.287 46.632 13.0784 44.5744 13.0784C40.6769 13.0784 37.8477 10.2492 37.8477 6.56923C37.8477 2.88928 40.7164 0.0205078 44.4755 0.0205078C47.5817 0.0205078 50.0746 2.03854 50.5098 5.42172C50.5098 5.48107 50.4703 5.54043 50.4307 5.56021L41.0528 8.58726C40.9736 8.60705 40.9341 8.70597 40.9736 8.76532C41.6661 9.97219 42.9323 10.7636 44.6338 10.7636C46.1968 10.7636 47.7004 10.1305 49.1249 8.72575C49.1645 8.70597 49.2634 8.72575 49.303 8.80489ZM40.5779 6.39117L47.4036 4.1555C47.4828 4.13572 47.5223 4.03679 47.4828 3.97744C46.9288 2.90907 45.8011 2.27596 44.4557 2.27596C42.2596 2.27596 40.5779 3.99722 40.3999 6.25267C40.3999 6.3516 40.4988 6.43073 40.5779 6.39117Z" fill="#02218E"/>
<path d="M59.1163 0.238825V2.69212C59.1163 2.77126 59.057 2.83061 58.9778 2.83061C56.386 2.87018 55.0011 4.15619 55.0011 6.82712V12.9801C55.0011 13.0593 54.9418 13.1186 54.8626 13.1186H52.2313C52.1521 13.1186 52.0928 13.0593 52.0928 12.9801V0.654303C52.0928 0.594949 52.1323 0.535595 52.2115 0.51581L54.6648 0.159686C54.7439 0.139902 54.8231 0.21904 54.8231 0.298179V1.8216C54.8231 1.94031 54.9813 1.99966 55.0605 1.90074C55.8914 0.773011 57.1774 0.159686 58.9778 0.120117C59.057 0.120117 59.1163 0.179471 59.1163 0.238825Z" fill="#02218E"/>
<path d="M74.2318 4.29317L76.784 3.71941C76.8631 3.69963 76.9422 3.75898 76.9422 3.83812V12.9193C76.9422 12.9984 76.8829 13.0578 76.8235 13.0578H74.2713C74.1922 13.0578 74.1526 12.9984 74.1526 12.9193V4.41187C74.1328 4.35252 74.1724 4.29317 74.2318 4.29317Z" fill="#02218E"/>
<path d="M92.6698 11.7313L93.0061 9.75282C93.0259 9.67368 93.1248 9.61433 93.204 9.67368C94.3515 10.3859 95.4001 10.7816 96.4882 10.7816C97.5962 10.7816 98.3084 10.2079 98.3084 9.23842C98.3084 8.52617 97.9325 8.03155 96.4091 7.53694L95.9145 7.37866C94.0151 6.74555 92.9468 5.45955 92.9468 3.67893C92.9468 1.62133 94.5691 0.078125 97.0026 0.078125C98.1105 0.078125 99.2976 0.414464 100.406 0.94865C100.465 0.968434 100.485 1.02779 100.485 1.08714L100.129 3.06561C100.109 3.14475 100.01 3.2041 99.9505 3.14475C98.9019 2.57099 97.8138 2.27422 97.0818 2.27422C96.0727 2.27422 95.5385 2.84798 95.5385 3.59979C95.5385 4.2329 95.8749 4.70773 97.2005 5.16278L97.7544 5.36063C99.8714 6.05309 100.999 7.33909 100.999 9.21863C100.999 11.4741 99.2976 13.0371 96.7058 13.0371C95.3605 13.0371 93.9558 12.5622 92.7885 11.8698C92.6698 11.8302 92.65 11.7906 92.6698 11.7313Z" fill="#02218E"/>
<path d="M77.0427 1.62351C77.0427 2.45446 76.37 3.12714 75.539 3.12714C74.7081 3.12714 74.0354 2.45446 74.0354 1.62351C74.0354 0.792551 74.7081 0.119873 75.539 0.119873C76.37 0.119873 77.0427 0.792551 77.0427 1.62351Z" fill="#02218E"/>
<path d="M29.9937 0.020752C28.2923 0.020752 26.848 0.713215 25.8192 1.86072C25.74 1.93986 25.6016 1.90029 25.6016 1.78159V0.258168C25.6016 0.179029 25.5224 0.119675 25.4631 0.13946L23.1285 0.495583C23.0691 0.495583 23.0098 0.554937 23.0098 0.614291V18.737C23.0098 18.8162 23.0691 18.8557 23.1285 18.8557H25.6807C25.7598 18.8557 25.7994 18.7964 25.7994 18.737V11.5552C25.7994 11.4365 25.9379 11.3771 26.017 11.4563C27.026 12.4653 28.3912 13.0588 29.974 13.0588C33.3967 13.0588 36.2655 10.1901 36.2655 6.51012C36.2853 2.88953 33.4165 0.020752 29.9937 0.020752ZM29.8157 10.6451C29.5981 10.6451 29.4002 10.6253 29.1826 10.5858C27.1645 10.4077 25.6016 8.68643 25.6016 6.54969C25.6016 4.86799 26.571 3.46328 27.9559 2.84996C28.5099 2.55319 29.143 2.37513 29.7959 2.37513C32.0118 2.37513 33.8122 4.23488 33.8122 6.51012C33.832 8.78535 32.0316 10.6451 29.8157 10.6451Z" fill="#02218E"/>
<path d="M67.2888 10.6244C69.9598 10.1495 71.9778 7.97321 71.9778 5.36164C71.9778 4.13499 71.5228 3.00727 70.7709 2.09717H72.1361C72.2152 2.09717 72.2746 2.03782 72.2746 1.95868V0.158277C72.2746 0.0791385 72.2152 0.0197847 72.1361 0.0197847H66.7349C66.5568 7.51776e-08 66.3788 0 66.2205 0C63.0352 0 60.4434 2.39394 60.4434 5.36164C60.4434 8.01278 62.5208 10.2089 65.2312 10.6441L67.2888 10.6244ZM63.1539 5.38143C63.1539 3.7393 64.519 2.41373 66.2007 2.41373C67.8824 2.41373 69.2475 3.7393 69.2475 5.38143C69.2475 7.02355 67.8824 8.34912 66.2007 8.34912C64.519 8.34912 63.1539 7.02355 63.1539 5.38143Z" fill="#02218E"/>
<path d="M85.8855 10.6244C88.5565 10.1495 90.5745 7.97321 90.5745 5.36164C90.5745 4.13499 90.1194 3.00727 89.3676 2.09717H90.7328C90.8119 2.09717 90.8713 2.03782 90.8713 1.95868V0.158277C90.8713 0.0791385 90.8119 0.0197847 90.7328 0.0197847H85.3316C85.1535 7.51776e-08 84.9754 0 84.8172 0C81.6318 0 79.04 2.39394 79.04 5.36164C79.04 8.01278 81.1174 10.2089 83.8279 10.6441L85.8855 10.6244ZM81.7505 5.38143C81.7505 3.7393 83.1157 2.41373 84.7974 2.41373C86.4791 2.41373 87.8442 3.7393 87.8442 5.38143C87.8442 7.02355 86.4791 8.34912 84.7974 8.34912C83.1157 8.34912 81.7505 7.02355 81.7505 5.38143Z" fill="#02218E"/>
<path d="M84.7983 10.5635C82.7802 10.5635 81.0985 11.8297 80.5643 13.551C80.5446 13.6301 80.6039 13.729 80.7028 13.729H83.1363C83.4925 13.2146 84.1058 12.8585 84.7983 12.8585C85.8864 12.8585 86.7767 13.6895 86.7767 14.7183C86.7767 15.7471 85.8864 16.578 84.7983 16.578C84.086 16.578 83.4727 16.2219 83.1363 15.7075H80.7028C80.6039 15.7075 80.5446 15.8064 80.5643 15.8855C81.0985 17.6068 82.7802 18.873 84.7983 18.873C87.2515 18.873 89.23 17.0133 89.23 14.7183C89.23 12.4232 87.2515 10.5635 84.7983 10.5635Z" fill="#02218E"/>
<path d="M66.2399 10.5635C64.2219 10.5635 62.5402 11.8297 62.006 13.551C61.9862 13.6301 62.0456 13.729 62.1445 13.729H64.578C64.9341 13.2146 65.5474 12.8585 66.2399 12.8585C67.3281 12.8585 68.2184 13.6895 68.2184 14.7183C68.2184 15.7471 67.3281 16.578 66.2399 16.578C65.5277 16.578 64.9143 16.2219 64.578 15.7075H62.1247C62.0258 15.7075 61.9664 15.8064 61.9862 15.8855C62.5204 17.6068 64.2021 18.873 66.2201 18.873C68.6734 18.873 70.6519 17.0133 70.6519 14.7183C70.6717 12.4232 68.6734 10.5635 66.2399 10.5635Z" fill="#02218E"/>
</svg>
