<svg width="104" height="120" viewBox="0 0 104 120" fill="none" xmlns="http://www.w3.org/2000/svg">
<path d="M64.3344 108.793C65.0091 107.642 64.4178 106.285 64.0486 105.095C63.8078 104.319 63.5415 103.523 63.208 102.756C67.9402 100.851 74.4846 99.9462 78.7847 97.0097C78.9089 97.2379 79.1548 97.4053 79.4262 97.4424C79.4611 97.4471 79.49 97.4408 79.5232 97.4432C79.6431 97.4882 79.7733 97.5537 79.9052 97.6272C80.0124 97.6919 80.1213 97.7535 80.2302 97.8159C80.3723 97.9012 80.5067 97.9817 80.6164 98.0362C80.6462 98.0512 80.676 98.0654 80.7058 98.0804C81.0504 98.2667 81.3967 98.446 81.7336 98.6252C83.0209 99.309 84.3303 99.9446 85.6669 100.54C86.8631 101.073 87.885 99.4495 86.6921 98.8597C85.1479 98.0962 83.6037 97.3334 82.0594 96.5699C81.5787 96.3322 81.0376 95.969 80.4914 95.7724C80.7696 95.6034 80.9636 95.3192 80.9593 94.9204C80.9304 92.4774 80.9678 90.0376 81.0359 87.5954C81.0776 86.0833 81.412 84.4014 81.0053 82.9241C84.0069 81.795 86.761 79.1964 89.3041 77.3938C90.2979 76.6895 89.4496 75.3219 88.2993 75.8359C86.6683 76.5647 85.0764 77.3574 83.545 78.2544C82.3291 78.9666 80.8411 79.6102 80.2361 80.8617C80.1817 80.9738 80.1647 81.082 80.1706 81.183C78.0266 79.1467 74.9296 77.7878 72.3559 76.2686C70.9776 75.4545 69.6078 74.6207 68.2005 73.8509C67.422 73.4245 66.3262 73.22 65.5145 72.8433C65.4524 72.7099 65.3239 72.6072 65.1631 72.5985C64.9615 72.3806 64.6492 72.2417 64.2434 72.308C62.9178 72.5251 61.7301 72.9965 60.5653 73.5184C57.6751 74.4604 54.7824 75.4103 51.9628 76.5023C51.8879 76.3902 51.7858 76.286 51.6463 76.1967C50.2816 75.325 48.922 74.4478 47.5471 73.5895C46.6801 72.9539 45.831 72.2882 44.9742 71.6029C46.1628 70.0537 47.3599 68.499 48.4421 66.8835C48.6157 66.6245 48.8131 66.3702 48.9985 66.1144C49.1968 66.0552 49.378 65.9581 49.5192 65.8167C54.3076 65.1645 59.1828 63.3113 63.7091 62.0456C63.7108 62.0448 63.7116 62.044 63.7142 62.0432C63.9414 62.0938 64.189 62.0653 64.4263 61.9177C64.4578 61.8979 64.4825 61.8782 64.5123 61.8577C64.6875 61.969 64.9104 62.029 65.1631 61.9895C67.3693 61.6429 69.6146 58.7364 71.0397 57.2922C72.9336 55.3727 74.853 53.4888 76.7852 51.6087C78.1295 51.7193 79.5351 51.3284 80.8504 51.0931C81.5855 50.9613 82.3198 50.8278 83.054 50.6952C84.1856 50.5775 85.3087 50.4109 86.4199 50.1661C86.6777 50.2269 86.9278 50.1646 87.1422 49.9932C87.1839 49.96 87.2256 49.9261 87.2673 49.8929C87.6272 49.6039 87.5557 49.0883 87.2885 48.7733C87.1686 48.448 86.8589 48.2048 86.3518 48.2435C86.3416 48.2443 86.3314 48.245 86.3212 48.2458C85.6907 48.1195 84.9454 48.23 84.2222 48.3998C83.1391 48.4796 82.056 48.5617 80.9721 48.6383C79.9843 48.7077 78.9659 48.7125 77.973 48.8254C77.9738 48.8175 77.9772 48.8112 77.9781 48.8025C78.0776 48.463 78.1678 48.1203 78.2486 47.7768C78.4622 46.9185 78.6494 46.0555 78.8008 45.1861C79.0595 43.7033 79.2398 42.2031 79.3334 40.7036C79.4321 39.1213 79.4347 37.5342 79.3283 35.9526C79.319 35.8144 79.2424 35.3604 79.1428 34.7769C80.1672 33.4267 80.9398 31.8743 81.8501 30.4681C83.0166 28.6654 84.2435 26.8983 85.5086 25.1541C85.8056 24.7451 85.5954 24.0542 85.1173 23.8449C83.6232 23.1904 82.5223 24.7459 81.526 25.6002C80.1953 26.7404 78.783 27.8348 77.6361 29.1345C77.1502 29.0626 76.6636 28.9931 76.1769 28.9284C74.4668 28.4965 72.5737 28.3575 70.7428 28.2714C69.47 28.1246 68.198 27.973 66.9294 27.7945C65.1334 27.5418 63.3552 27.2228 61.5965 26.7957C59.9579 26.3969 58.4502 25.6776 56.752 25.8616C56.7205 25.8647 56.6916 25.8805 56.6618 25.8908C56.1275 24.8596 55.2435 23.845 54.8232 22.9495C53.6491 20.4465 53.6048 17.7019 52.5303 15.2344C52.3167 14.7449 51.5008 14.6406 51.34 15.2407C51.0864 16.1859 51.0915 17.1973 51.2489 18.2167C50.9911 21.5149 52.6843 25.2157 53.9979 28.2612C51.9449 29.9762 50.2322 32.3931 48.5944 34.2392C46.9796 36.0592 45.4217 37.929 43.8741 39.8051C43.31 40.4107 42.6277 41.111 42.192 41.8446C41.8568 42.252 41.5224 42.6594 41.1872 43.0653C41.0281 43.258 40.9677 43.4656 40.9745 43.6662C40.8503 43.757 40.7644 43.8904 40.7729 44.0397C40.9464 47.198 42.5485 50.4464 43.5619 53.4509C44.5692 56.4387 45.6285 59.4099 46.6597 62.3899C46.7303 62.6694 46.8103 62.9457 46.8792 63.226C45.9713 64.2012 45.3171 65.4701 44.6483 66.5502C43.8749 67.801 43.0999 69.0509 42.3316 70.3048C41.9776 70.0568 41.6186 69.8144 41.2681 69.5626C38.5259 67.5957 35.8833 65.114 32.7991 63.639C31.7534 63.1392 30.8652 64.3267 31.6037 65.1179C33.9638 67.647 37.3858 69.6463 40.2939 71.6273C40.6393 71.8626 41.0162 72.1366 41.4076 72.4225C40.0948 73.9725 38.6246 75.6006 37.6266 77.3156C33.9494 77.9118 30.1939 77.8841 26.5413 78.6445C26.4554 78.6627 26.378 78.6911 26.3039 78.7234C26.3039 78.7234 26.3014 78.7234 26.2997 78.7242C26.2887 78.7282 26.2793 78.7345 26.2682 78.7384C25.7501 78.1684 25.032 77.6741 24.5479 77.2485C23.384 76.2275 22.3332 75.0084 21.1063 74.0625C20.7967 73.824 20.3619 73.6479 19.9535 73.7885C19.9118 73.8027 19.8701 73.8169 19.8284 73.8311C18.9146 74.1454 18.6943 75.2611 19.5723 75.7601C20.0522 76.0325 20.5627 76.7321 21.0119 77.1443C21.6925 77.768 22.3945 78.3784 23.1211 78.9556C23.4886 79.2477 23.9242 79.6315 24.3981 79.9592C23.6384 80.6816 22.9909 81.5494 22.3255 82.2885C21.0629 83.6908 19.2541 85.1839 18.4807 86.8689C18.3676 87.1145 18.3778 87.3774 18.4594 87.6135C18.3165 87.7327 18.2127 87.9001 18.194 88.077C17.9992 89.886 19.1997 91.736 19.7536 93.4707C20.361 95.3729 20.8341 97.3074 21.2978 99.2435C21.1659 99.8309 21.5343 100.49 22.374 100.499C24.1242 100.518 25.9228 100.065 27.6219 99.7014C28.7756 99.4551 30.0918 99.3106 31.1442 98.7847C31.5492 98.941 32.0487 98.915 32.4894 98.5723C35.1992 96.4696 37.5185 93.6508 39.8361 91.1801C40.1535 90.8422 40.2726 90.3747 40.0965 89.9602C40.9354 88.6913 40.1526 86.1891 40.0165 84.8941C39.82 83.0181 39.7145 80.9233 38.9751 79.1238C39.0057 79.0922 39.0381 79.0622 39.0627 79.0275C40.7176 77.603 42.0882 75.6503 43.3721 73.813C44.4543 74.5339 45.6064 75.1908 46.7516 75.524C47.975 76.357 49.2708 77.1024 50.5683 77.7633C50.5623 77.7751 50.5513 77.7846 50.5462 77.7973C49.3295 80.6588 49.4095 84.2198 49.1636 87.2692C48.9211 90.2689 48.1273 93.8947 49.1636 96.772C49.2802 97.095 49.6928 97.3169 50.0527 97.2876C50.0995 97.3382 50.1489 97.3871 50.2033 97.425C51.0328 97.9951 52.1015 98.2786 53.022 98.7358C54.231 99.3358 55.4562 99.9028 56.6967 100.446C57.9823 101.009 59.6745 102.016 61.2298 102.118C61.5378 103.27 61.9675 104.402 62.2916 105.548C62.6192 106.706 62.6481 108.068 63.6708 108.882C63.8767 109.04 64.1983 109.025 64.3344 108.793ZM61.2911 60.209C58.3362 60.5833 55.4571 61.5237 52.6094 62.3275C51.7245 62.577 50.5768 62.7697 49.4707 63.05C49.4665 63.046 49.4614 63.0421 49.4571 63.0381C48.7969 60.2272 48.0167 57.4478 47.0408 54.7126C46.6137 53.5164 43.0599 46.4669 43.6427 44.4139C43.8069 44.2181 43.9702 44.0215 44.1344 43.8257C44.3446 43.5746 44.3735 43.2501 44.2187 43.0116C44.5581 42.5923 44.8976 42.1723 45.2371 41.753C45.8488 41.0155 46.475 40.2891 47.1072 39.5666C48.2456 38.2661 49.4129 36.9878 50.6236 35.7449C52.7532 33.5586 55.2435 31.628 57.3203 29.4069C57.3493 29.3998 57.3791 29.3934 57.408 29.3863C57.5492 29.3532 57.6828 29.2497 57.7721 29.1242C57.7738 29.125 57.7755 29.1258 57.7781 29.1266C57.8206 29.2545 57.9253 29.3619 58.1269 29.3958C58.486 29.4558 58.8467 29.5087 59.2083 29.5585C59.5775 29.6343 59.9519 29.6816 60.3297 29.699C62.8421 29.9872 65.3852 30.108 67.8959 30.3733C70.7275 30.6734 73.7104 31.369 76.6125 31.5482C76.6449 32.3118 76.8618 33.103 76.9308 33.8483C77.14 36.1232 77.1732 38.428 76.992 40.706C76.8031 43.07 76.3964 45.4159 75.7787 47.716C75.5737 48.4788 75.2776 49.0844 75.2181 49.6687C70.4271 52.0398 66.7992 56.2752 63.0582 59.8703C62.5784 60.0053 62.0883 60.1356 61.5948 60.2651C61.508 60.2208 61.4085 60.194 61.2911 60.209ZM26.5601 80.8506C28.4889 81.1886 30.2671 80.9438 32.1746 80.5853C33.6065 80.3161 35.2018 80.1431 36.6252 79.6757C36.6396 79.6741 36.6541 79.6725 36.6686 79.671C36.7613 81.2699 37.1748 82.8909 37.3348 84.4764C37.5032 86.1472 37.681 87.8227 37.8257 89.4951C37.8265 89.5054 37.8316 89.5133 37.8325 89.5235C36.5018 90.4008 35.5412 91.7794 34.4956 92.9228C33.3666 94.1577 32.2256 95.3823 31.0676 96.5944C29.7923 96.4941 28.5399 97.0152 27.2807 97.2955C26.0113 97.5782 24.6763 97.7574 23.3967 98.0551C22.6608 94.8115 21.9257 90.8272 19.8216 88.1773C19.848 88.1646 19.8727 88.1623 19.899 88.1473C21.6747 87.1066 22.9909 85.1121 24.2646 83.5795C24.9869 82.7101 25.8692 81.8163 26.4401 80.819C26.4784 80.8293 26.5167 80.8427 26.5601 80.8506ZM62.0509 100.714C61.8824 100.49 61.6391 100.437 61.4272 100.49C60.2574 99.6556 58.5702 99.1598 57.3995 98.5976C55.4681 97.6698 53.4976 96.3346 51.3927 95.8079C51.2481 95.7716 51.1111 95.7716 50.9792 95.789C51.7033 93.2694 51.4446 90.4142 51.6156 87.8464C51.8164 84.8294 52.4843 81.5399 52.1057 78.5103C52.1508 78.4992 52.1951 78.4889 52.2384 78.4692C54.14 77.5999 56.1267 77.288 58.0623 76.5513C59.1488 76.1375 60.1731 75.6267 61.2137 75.16C62.3903 74.7652 63.5653 74.3712 64.742 73.9874C64.7701 73.9788 64.7854 73.9614 64.8109 73.9511C65.7374 75.0392 68.1571 76.0909 68.7833 76.4739C72.1789 78.5489 75.6315 80.5395 78.9795 82.6801C79.0901 82.7504 79.1999 82.7922 79.3088 82.8151C78.7515 84.144 78.8476 85.7003 78.7693 87.1397C78.64 89.5164 78.6222 91.8986 78.6375 94.2793C78.4146 94.5043 78.3193 94.8312 78.5345 95.1155C78.5473 95.132 78.56 95.1486 78.572 95.1652C75.7949 95.9611 73.1259 97.23 70.3684 98.097C67.9079 98.8708 65.4626 99.6422 63.0727 100.576C62.8251 100.516 62.5367 100.558 62.2797 100.747C62.2338 100.781 62.1878 100.814 62.1428 100.848C62.1121 100.804 62.0832 100.758 62.0509 100.714Z" fill="white" fill-opacity="0.03"/>
<path d="M49.5814 46.2396C49.6188 46.1986 49.6562 46.1575 49.6937 46.1172C49.8749 45.9191 49.8902 45.7003 49.7745 45.4713C49.7404 45.4027 49.7047 45.3545 49.6673 45.3126C50.3462 44.6281 51.2353 43.1981 51.3681 43.0125C52.1874 41.8668 53.0731 40.7677 54.0039 39.6986C55.6026 37.8636 57.4837 36.2828 59.1241 34.4912C59.5086 34.0712 58.9956 33.355 58.4443 33.6937C55.6272 35.4206 53.2994 38.0247 51.3034 40.5214C50.2586 41.8282 47.5292 44.3541 48.4353 46.1157C48.6319 46.4955 49.2963 46.5515 49.5814 46.2396Z" fill="white" fill-opacity="0.03"/>
<path d="M61.2405 56.3972C64.4285 53.9313 67.4634 50.0788 69.479 46.7333C69.8567 46.1064 68.9242 45.6263 68.4886 46.0456L68.4869 46.0432C66.9665 47.6761 65.612 49.4472 64.1308 51.1132C62.772 52.6411 61.215 54.0497 59.9907 55.67C59.4343 56.4059 60.8424 57.0423 61.2405 56.3972Z" fill="white" fill-opacity="0.03"/>
<path d="M73.2101 35.9619C71.4472 34.412 67.8517 34.4657 65.5868 34.5975C64.9513 34.6346 64.9512 35.4834 65.5885 35.515C66.9387 35.5814 68.2805 35.7385 69.6009 36.0117C70.6925 36.2375 71.7901 36.6923 72.9183 36.6315C73.2705 36.6118 73.4883 36.2067 73.2101 35.9619Z" fill="white" fill-opacity="0.03"/>
<path d="M88.1212 18.691C89.0018 17.3479 90.0526 14.0822 88.5883 12.8085C88.3645 12.6135 87.9629 12.4674 87.6575 12.5875C87.6098 12.6064 87.5631 12.6246 87.5154 12.6435C87.3793 12.6972 87.2406 12.7825 87.1274 12.8891C83.2154 11.7623 79.0209 18.3689 82.8827 20.3784C84.86 21.4065 87.0373 20.3445 88.1212 18.691ZM84.7656 19.1198C82.7066 19.3346 83.1227 17.3598 83.7157 16.263C84.29 15.2002 85.1936 14.2701 86.4613 14.2764C86.4511 14.3554 86.4408 14.4335 86.4306 14.5125C86.3413 14.9452 86.8901 15.2966 87.2431 15.1189C87.2891 16.8386 86.5617 18.9327 84.7656 19.1198Z" fill="white" fill-opacity="0.03"/>
<path d="M92.3351 25.8352C93.2846 25.4412 93.9729 24.6216 94.6357 23.8557C94.645 23.8581 94.6527 23.8636 94.6629 23.866C95.0092 23.9591 95.2448 23.6536 95.1946 23.3669C95.1878 23.3306 95.1751 23.2951 95.1657 23.2588C96.0565 22.2923 96.9175 21.3021 97.7879 20.3191C98.4124 19.614 97.3608 18.6222 96.6759 19.3147C95.8566 20.143 95.0355 20.9713 94.2264 21.8091C93.4845 21.1261 92.4414 20.5891 91.4876 20.2954C91.5361 20.2314 91.5761 20.1793 91.5974 20.1541C92.3529 19.2626 93.1825 18.443 94.0903 17.6826C94.8356 17.0581 93.7423 16.1374 92.9927 16.6925C90.9346 18.2172 88.8714 20.1928 87.9661 22.5339C87.8564 22.8182 88.0452 23.2359 88.343 23.3638C88.8356 23.5762 89.2458 23.5983 89.6329 23.2082C89.775 23.0653 89.735 22.8545 89.5622 22.7518C89.615 22.7826 90.0923 22.166 90.5739 21.5224C91.2171 21.8596 91.8714 22.1683 92.4754 22.5821C92.6771 22.7203 92.8694 22.8624 93.0616 23.0021C92.3989 23.6693 91.7344 24.3681 91.4698 25.2304C91.3166 25.7302 91.8994 26.016 92.3351 25.8352Z" fill="white" fill-opacity="0.03"/>
<path d="M92.97 55.1694C94.6938 54.15 94.772 52.2502 93.7281 51.0603C95.7888 50.6237 98.2765 49.7899 98.2093 47.9027C98.1481 46.1917 96.6744 45.6263 95.1251 45.53C94.6231 45.2071 93.9867 45.0294 93.4039 45.1312C92.497 45.2892 92.1702 46.1917 91.6921 46.836C90.4133 48.5613 88.9244 50.0741 88.0115 51.9794C87.9443 52.0118 87.8847 52.06 87.8413 52.1302C86.2214 54.7438 90.94 56.3704 92.97 55.1694ZM91.8027 49.9912C91.8248 49.9533 91.8461 49.9123 91.8682 49.8759C92.3396 49.0942 92.8305 48.322 93.3239 47.5514C93.3971 47.4574 93.4694 47.3611 93.5494 47.2766C93.5715 47.2529 93.5962 47.2403 93.6192 47.2197C93.6524 47.2434 93.6839 47.2718 93.7221 47.2853C94.1858 47.4519 94.5942 47.3784 94.9856 47.7188C95.3608 48.0441 95.7539 48.4633 95.7947 48.9608C95.6322 49.1037 95.3353 49.1921 94.8971 49.2237C93.888 49.5632 92.8534 49.8025 91.8027 49.9912ZM90.3002 54.0616C90.2193 54.0308 90.1487 53.996 90.0781 53.9613C90.096 53.9368 90.1147 53.9155 90.1308 53.8871C90.3903 53.4275 90.6524 52.9711 90.9519 52.5329C91.1935 52.1808 91.5168 51.801 91.5279 51.3785C91.5755 51.3935 91.6181 51.4172 91.67 51.4235C92.5591 51.5254 93.1538 52.6979 92.776 53.4188C92.3234 54.2819 91.088 54.3656 90.3002 54.0616Z" fill="white" fill-opacity="0.03"/>
<path d="M98.0283 56.5472C99.4934 55.5617 100.872 56.116 102.493 56.2984C102.664 56.3174 102.848 56.2337 102.983 56.1184C102.988 56.1153 102.992 56.1121 102.996 56.1089C103.051 56.0608 103.097 56.0087 103.129 55.9542C103.159 55.9029 103.182 55.8492 103.2 55.7931C103.296 55.5017 103.125 55.1788 102.852 55.028C101.779 54.4342 100.267 54.2147 99.0016 54.5479C99.2177 54.1302 99.433 53.7133 99.6695 53.3035C100.135 52.4965 98.8451 51.8191 98.338 52.6039C97.7058 53.5822 97.1026 54.5842 96.6049 55.6289C96.2246 56.4279 95.5601 57.4363 96.051 58.2851C96.1437 58.4454 96.4202 58.5677 96.6134 58.4935C97.4582 58.169 97.7161 57.3068 98.0283 56.5472Z" fill="white" fill-opacity="0.03"/>
<path d="M50.3272 8.47699C51.977 6.72172 50.4072 5.45599 48.6316 4.80537C50.2132 4.27397 51.9208 3.40226 52.0612 2.05047C52.2543 0.18781 49.8797 -0.0822323 48.4563 0.0180463C48.2351 0.0338383 48.0947 0.157016 48.0266 0.307828C47.9356 0.333885 47.8488 0.380473 47.7816 0.468908C46.2604 2.50212 44.3639 5.18121 44.3171 7.73714C44.3129 7.9527 44.62 8.00718 44.7349 7.839C45.3287 6.9657 45.6903 5.99687 46.1081 5.04698C46.1965 5.20332 46.3616 5.32887 46.5802 5.34861C47.0218 5.36361 47.454 5.42283 47.8786 5.52627C48.9983 5.6834 49.1208 6.59538 48.2453 8.26064C47.8054 8.60411 46.73 8.53779 46.2255 8.53384C44.6744 8.52041 43.4246 7.90137 42.0624 7.29259C41.5273 7.05335 41.0389 7.64554 41.443 8.05929C43.354 10.0175 48.2768 10.6586 50.3272 8.47699ZM46.4603 4.28502C47.0491 3.118 47.7459 2.00704 48.5184 0.937137C49.5513 0.745265 50.2456 1.27824 50.5969 2.54633C50.2022 2.8527 49.7793 3.11721 49.3275 3.33988C48.4078 3.8239 47.4532 4.11447 46.4348 4.34188C46.4433 4.32292 46.4501 4.30397 46.4603 4.28502Z" fill="white" fill-opacity="0.03"/>
<path d="M53.1092 11.1144C53.5805 10.4093 53.7779 9.60071 54.1021 8.83401C54.1633 9.02509 54.3556 9.18617 54.6253 9.13248C55.5 8.95719 56.3788 8.8656 57.2739 8.8806C57.9988 8.89323 58.7637 9.09616 59.4682 8.91613C59.7294 8.84901 59.7234 8.55765 59.5328 8.42816C58.8853 7.98756 57.8839 8.02152 57.1088 8.0302C56.1917 8.04047 55.2847 8.16048 54.3931 8.35315C54.359 8.36025 54.3369 8.37684 54.3088 8.38868C54.6874 7.62119 55.163 6.89634 55.7254 6.23387C56.1874 5.68826 55.363 4.9192 54.8797 5.47033C53.6222 6.90345 52.0491 9.10168 52.4855 11.0433C52.5493 11.3244 52.9637 11.3323 53.1092 11.1144Z" fill="white" fill-opacity="0.03"/>
<path d="M57.3844 82.2652C60.0738 81.2403 62.8764 80.0685 65.3659 78.6725C65.9563 78.3416 65.6883 77.4928 65.0102 77.481C63.677 77.4581 62.3761 78.1979 61.185 78.7025C59.6705 79.3444 58.1322 79.9753 56.6629 80.7017C55.761 81.1479 56.4093 82.6371 57.3844 82.2652Z" fill="white" fill-opacity="0.03"/>
<path d="M74.2789 93.5538C75.4002 92.375 75.2845 90.4413 75.3143 88.9331C75.35 87.1044 75.2522 85.0799 74.626 83.3294C74.5639 82.4395 72.8614 82.4608 72.9082 83.4549C72.989 85.1841 73.303 86.8707 73.2715 88.611C73.2434 90.1262 72.5764 91.8586 73.1541 93.2862C73.3208 93.6983 73.9156 93.936 74.2789 93.5538Z" fill="white" fill-opacity="0.03"/>
<path d="M61.5299 97.4142C60.8016 96.6507 59.4582 96.2401 58.484 95.7861C57.3541 95.2594 56.2106 94.7572 55.0731 94.244C54.4749 93.974 53.9695 94.7786 54.56 95.0849C55.7197 95.6858 56.8725 96.3009 58.0433 96.8836C59.0225 97.3716 60.069 98.0878 61.1828 98.2094C61.6575 98.2623 61.7851 97.6819 61.5299 97.4142Z" fill="white" fill-opacity="0.03"/>
<path d="M97.5288 78.6008C98.2434 78.1326 98.8569 77.3201 98.3404 76.5131C98.0231 76.0173 97.5415 75.9517 97.0497 75.9257C98.3489 75.2332 99.7519 74.2059 99.4176 73.1487C99.0228 71.8987 97.0812 72.059 95.6638 72.4499C95.7267 72.2754 95.7786 72.0985 95.845 71.9248C96.0747 71.3247 94.9882 70.9038 94.7228 71.5008C94.1919 72.6907 93.695 73.9004 93.3436 75.1479C93.1649 75.7836 92.8204 76.6734 92.8748 77.4291C92.5855 77.1132 91.9729 77.2088 91.8215 77.6502C91.4591 78.7058 92.2478 79.5499 93.3708 79.7457C94.7041 79.9779 96.4635 79.2988 97.5288 78.6008ZM93.5912 78.3024C94.4173 77.7465 94.4233 76.5463 94.6547 75.6833C94.83 75.0271 95.018 74.3765 95.2222 73.7298C96.0211 73.4377 98.1337 72.9497 97.6547 73.8956C97.2973 74.6007 95.7965 75.1827 95.0793 75.4472C94.6215 75.6162 94.3816 76.1483 94.7874 76.506C95.3311 76.9845 95.9479 76.7769 96.4874 77.0777C96.8677 77.0153 96.9264 77.1764 96.666 77.5633C96.2993 77.7647 95.9165 77.9344 95.5166 78.0726C94.9976 78.2495 94.1731 78.5242 93.5912 78.3024Z" fill="white" fill-opacity="0.03"/>
<path d="M101.386 80.9695C100.844 79.5624 102.023 78.6189 103.357 78.2335C103.724 78.1277 103.672 77.7053 103.353 77.5861C102.364 77.2181 101.507 77.4826 100.894 78.0432C100.782 77.804 100.661 77.5695 100.509 77.3492C100.287 77.027 99.7221 77.0784 99.6166 77.466C99.4983 77.9003 99.523 78.3251 99.6617 78.7555C99.7578 79.0539 99.8497 79.384 99.9799 79.6824C99.8667 80.228 99.8931 80.7974 100.106 81.2987C100.413 82.0244 101.677 81.7251 101.386 80.9695Z" fill="white" fill-opacity="0.03"/>
<path d="M95.5988 105.779C96.8027 104.547 97.0631 102.353 95.9775 101.054C95.8235 99.7011 93.9823 98.8136 92.4823 99.3734C90.1502 100.244 88.3099 103.346 89.5462 105.55C90.7858 107.761 93.9874 107.427 95.5988 105.779ZM91.2146 105.434C90.129 104.518 90.9151 102.985 91.5907 102.099C92.0263 101.527 92.5699 100.926 93.3314 100.765C93.442 100.742 93.5603 100.737 93.6777 100.74C93.6769 100.89 93.7271 101.043 93.8572 101.166C94.1133 101.408 94.355 101.659 94.56 101.918C94.5583 102.108 94.6808 102.259 94.8535 102.352C95.2041 102.959 95.3053 103.629 94.8637 104.408C94.2554 105.485 92.3743 106.414 91.2146 105.434Z" fill="white" fill-opacity="0.03"/>
<path d="M103.554 104.917C103.712 104.157 102.479 103.84 102.29 104.607C102.045 105.598 101.634 106.523 101.021 107.368C100.847 107.607 100.651 107.836 100.452 108.064C100.432 108.042 100.419 108.019 100.392 107.999C99.9855 107.684 99.5559 107.419 99.1049 107.192C99.1509 107.077 99.1976 106.964 99.2495 106.853C99.7924 105.689 100.526 104.622 101.407 103.655C101.976 103.031 101.011 102.138 100.417 102.761C99.3908 103.839 98.5212 105.027 97.8891 106.344C97.844 106.438 97.7998 106.535 97.7547 106.631C97.7138 106.617 97.6747 106.6 97.633 106.586C96.8094 106.311 96.4129 107.627 97.2825 107.816H97.2833C97.0528 108.551 96.9566 109.312 97.2144 110.036C97.3088 110.301 97.6441 110.312 97.8091 110.104C98.2507 109.546 98.4991 108.885 98.7314 108.218C99.1202 108.345 99.5065 108.48 99.8868 108.625C99.9098 108.634 99.9336 108.634 99.9566 108.638C99.6792 108.964 99.4155 109.298 99.2206 109.668C99.0896 109.917 99.3117 110.177 99.6018 110.12C101.905 109.676 103.161 106.809 103.554 104.917Z" fill="white" fill-opacity="0.03"/>
<path d="M70.4434 114.738C70.9173 113.79 70.2017 112.971 69.2956 112.376C70.3779 112.212 71.4575 111.838 71.6209 111.015C71.8634 109.795 69.7185 109.261 68.792 109.103C68.4321 109.042 68.2032 109.327 68.2151 109.584C68.1062 109.262 67.7318 109.036 67.3456 109.255C66.3195 109.837 65.5367 111.041 64.9395 111.987C64.7166 112.34 64.1219 113.19 64.0572 113.844C63.9313 113.877 63.8224 113.963 63.7841 114.1C63.6769 114.487 63.6956 114.637 63.779 115.034C63.8215 115.236 64.0282 115.402 64.2341 115.452C65.5316 115.768 66.8478 115.856 68.1802 115.683C68.9272 115.586 70.0733 115.477 70.4434 114.738ZM68.1896 110.022C68.244 109.914 68.2551 109.802 68.2406 109.695C68.2823 109.81 68.3768 109.908 68.552 109.943C69.1425 110.06 70.8543 110.29 69.9448 111.148C69.4539 111.612 67.9616 111.506 67.3592 111.488C67.2086 111.484 67.0886 111.538 66.9993 111.619C67.0146 111.598 67.0274 111.574 67.0435 111.553C67.4162 111.041 67.9088 110.58 68.1896 110.022ZM65.142 114.408C65.5274 114.068 65.8269 113.422 65.986 113.154C66.2574 112.699 66.5569 112.259 66.864 111.823C66.7874 112.039 66.8461 112.3 67.0929 112.428C67.4647 112.621 67.8561 112.809 68.2083 113.034C68.6788 113.284 69.0208 113.643 69.2344 114.112C69.1348 114.257 68.991 114.33 68.8022 114.329C68.1011 114.843 66.254 114.607 65.142 114.408Z" fill="white" fill-opacity="0.03"/>
<path d="M72.8686 117.388C72.9273 117.243 72.9673 117.094 73.0133 116.947C73.631 116.717 74.2623 116.595 74.9301 116.631C75.5606 116.664 76.1009 116.84 76.7373 116.774C76.8947 116.758 77.0419 116.6 76.933 116.453C76.1553 115.41 74.4996 115.535 73.2464 115.908C73.311 115.381 73.311 114.845 73.2523 114.312C73.197 113.811 72.4381 113.801 72.4015 114.313C72.3335 115.269 72.051 116.182 71.5941 117.04C71.2802 117.63 70.4855 118.33 70.7076 119.02C70.7629 119.191 70.9152 119.28 71.0972 119.295C72.0391 119.375 72.5972 118.054 72.8686 117.388Z" fill="white" fill-opacity="0.03"/>
<path d="M27.7825 62.1459C29.5598 60.4736 29.5369 57.4423 27.9195 55.6926C27.4141 55.1454 26.5777 55.5631 26.4331 56.1505C26.3803 56.1245 26.3285 56.0976 26.2689 56.0763C25.3687 55.7581 24.0678 56.2879 23.2689 56.6646C21.0109 57.7289 20.9581 59.9303 22.2599 61.7701C23.5123 63.5427 26.2238 63.613 27.7825 62.1459ZM24.4779 61.4329C23.5284 61.1076 22.6887 59.4558 23.1728 58.6188C23.3753 58.269 26.0826 56.7893 26.1242 57.3586C26.1472 57.6705 26.5939 57.8916 26.8415 57.695C27.1087 58.4262 27.3128 59.1486 27.0312 59.9793C26.7011 60.9529 25.6384 61.8309 24.4779 61.4329Z" fill="white" fill-opacity="0.03"/>
<path d="M25.1897 87.9584C25.9631 86.8735 26.8181 85.8075 27.4409 84.6397C27.5643 84.4091 27.5677 84.0451 27.3227 83.8691C27.2852 83.8414 27.2461 83.8146 27.2078 83.7877C26.2753 83.1884 24.2495 86.5695 23.8879 87.0598C23.5774 87.4807 23.2941 88.0342 22.9129 88.4069C22.8738 88.4369 22.6381 88.6414 22.7393 88.534C22.6483 88.6311 22.5462 88.6714 22.4798 88.8001C22.1957 89.3568 22.684 90.0382 23.3749 89.8637C24.2078 89.6529 24.7515 88.5743 25.1897 87.9584Z" fill="white" fill-opacity="0.03"/>
<path d="M34.5629 88.6144C34.6659 88.3159 34.6344 88.0695 34.5791 87.7695C34.4557 87.1086 34.4625 86.6222 34.4847 85.955C34.5187 84.9577 34.3613 83.8586 33.7113 83.0382C33.4135 82.6632 32.6375 82.7477 32.6741 83.3051C32.7371 84.2692 32.9123 85.1607 32.8383 86.1343C32.8026 86.6088 32.7473 87.0676 32.8298 87.5413C32.8834 87.8516 33.0961 88.1485 33.1387 88.4438C33.2416 89.1718 34.2975 89.3866 34.5629 88.6144Z" fill="white" fill-opacity="0.03"/>
<path d="M29.8389 94.6248C30.0193 94.4069 30.0074 94.1234 29.7377 93.9678C29.057 93.5738 28.1177 93.9173 27.3699 94.02C26.9334 94.0808 26.4944 94.1226 26.0579 94.181C25.8129 94.2142 25.5695 94.2387 25.3347 94.3129C25.1042 94.3855 24.8863 94.3776 25.1331 94.4171C25.0676 94.4219 25.002 94.4329 24.945 94.4558C24.9289 94.4621 24.9127 94.4684 24.8965 94.4755C24.7408 94.5379 24.6396 94.7795 24.7026 94.9256C25.0037 95.6197 26.1124 95.4112 26.7309 95.3504C27.637 95.262 29.2501 95.3394 29.8389 94.6248Z" fill="white" fill-opacity="0.03"/>
<path d="M16.6966 73.0851C17.8792 72.2741 16.7655 70.6799 16.2133 69.8406C16.0423 69.5808 15.8015 69.0873 15.5327 68.8781C16.2746 69.1442 16.9646 69.4474 17.6955 69.7443C17.8588 69.8982 18.0647 69.944 18.2953 69.8414C18.3267 69.8272 18.3582 69.813 18.3906 69.7988C18.5429 69.7308 18.6747 69.5224 18.6552 69.3645C18.4799 67.955 13.7962 66.2298 13.5196 68.1943C13.4184 68.912 15.9555 71.6267 15.6041 71.8817C15.2962 72.1052 14.1731 71.4474 13.9255 71.2713C13.3078 70.8339 12.9547 70.1691 12.4834 69.61C12.1014 69.156 11.4207 69.325 11.3475 69.9022C11.0855 71.9622 14.6861 74.4629 16.6966 73.0851Z" fill="white" fill-opacity="0.03"/>
<path d="M18.7901 66.7995C19.5907 66.4173 20.3582 65.6475 20.9401 65.019C21.2864 64.6194 21.3425 64.0572 20.9205 63.6758C20.5377 63.3308 19.8409 63.3087 19.4733 63.6948C19.1815 64.0004 18.8939 64.3091 18.5834 64.5989C18.2754 64.8863 17.9155 65.1366 17.6407 65.4509C16.8205 66.1418 17.8899 67.2282 18.7901 66.7995Z" fill="white" fill-opacity="0.03"/>
<path d="M11.9569 64.141C11.5766 63.7248 11.0364 63.4682 10.571 63.1429C10.0979 62.8113 9.65636 62.4433 9.23351 62.058C8.60986 61.4903 7.6476 62.4046 8.28656 62.9613C9.12971 63.6964 10.2911 64.7497 11.4711 64.9369C11.9867 65.0182 12.293 64.5089 11.9569 64.141Z" fill="white" fill-opacity="0.03"/>
<path d="M9.90101 66.3711C9.36925 65.9463 8.84005 65.5223 8.28787 65.1204C7.7876 64.7564 7.31284 64.3268 6.72238 64.1034C6.3191 63.951 5.86901 64.4982 6.14212 64.8188C6.5369 65.2823 7.11631 65.5878 7.6319 65.9321C8.20194 66.3119 8.78816 66.6656 9.37607 67.021C9.79297 67.272 10.2822 66.6751 9.90101 66.3711Z" fill="white" fill-opacity="0.03"/>
<path d="M5.61582 60.8007C6.72868 60.2874 7.41955 59.3233 6.87928 58.0876C6.76442 57.3083 6.28626 56.5763 5.36653 56.1484C5.27635 56.1065 5.18021 56.0805 5.08662 56.0505C5.00494 55.9636 4.9088 55.8831 4.78543 55.8191C3.89123 55.3525 2.89152 55.9683 2.1377 56.5937C1.51491 57.0003 1.01973 57.5562 0.784054 58.1642C0.764485 58.2116 0.750022 58.259 0.734708 58.3063C0.710885 58.3829 0.688765 58.4595 0.674301 58.5369C0.664942 58.5882 0.659841 58.6395 0.654736 58.6909C0.598583 59.1812 0.717689 59.685 1.10481 60.1595C1.39749 60.518 1.79142 60.7683 2.22959 60.9412C2.89918 61.2665 3.68107 61.3913 4.43149 61.2657C4.88497 61.1899 5.27805 61.0233 5.61582 60.8007ZM4.78799 57.7457L4.79053 57.7433C4.85775 57.7931 4.92326 57.8499 4.98537 57.9218C5.28911 58.274 5.31463 58.6261 5.1768 58.9309C4.71225 59.5831 3.91504 59.8926 2.94767 59.4355C1.92329 58.9514 2.73242 58.1484 3.40626 57.7907C3.65895 57.6565 3.91505 57.5712 4.16178 57.5602C4.26303 57.7852 4.51232 57.9344 4.78799 57.7457Z" fill="white" fill-opacity="0.03"/>
<path d="M7.21052 76.1134C7.23094 75.9863 7.8163 75.5567 7.94392 75.4264C8.25022 75.1161 8.54629 74.8011 8.82791 74.471C9.29245 73.9254 9.85655 73.3901 9.92802 72.6771C9.96716 72.2878 9.54174 72.1046 9.19887 72.1875C9.20057 72.1804 9.20227 72.1741 9.20483 72.167C8.30722 72.486 7.68357 73.4461 7.04887 74.092C6.45755 74.6937 5.5157 75.2275 5.65438 76.1213C5.76669 76.8461 7.09396 76.8264 7.21052 76.1134Z" fill="white" fill-opacity="0.03"/>
<path d="M10.0844 77.8835C10.5251 77.4777 10.9216 77.0063 11.3206 76.5649C11.7409 76.1006 12.2072 75.6245 12.4812 75.0694C12.7381 74.5491 12.1732 73.9253 11.5844 74.2569C10.9897 74.5917 10.5073 75.0915 10.0351 75.5598C9.62497 75.9672 8.98005 76.4362 8.73246 76.9431C8.34875 77.7327 9.36292 78.5492 10.0844 77.8835Z" fill="white" fill-opacity="0.03"/>
<path d="M6.11979 83.5858C7.47854 82.4867 7.3807 80.1052 5.93177 79.1032C5.85264 79.048 5.77182 79.0266 5.69354 79.0203C4.88527 78.0886 3.08494 78.0531 1.97974 78.684C0.283216 79.6536 -0.539512 81.7847 0.937499 83.262C2.20436 84.5278 4.69468 84.7394 6.11979 83.5858ZM2.81099 82.6375C1.54327 82.1629 1.56369 81.0141 2.45535 80.1858C2.80673 79.8597 3.31212 79.5817 3.82686 79.6062C4.23355 79.6251 4.51175 79.8115 4.76104 80.046C4.7687 80.1747 4.83762 80.3018 4.96269 80.3642C5.03245 80.399 5.10308 80.4337 5.17284 80.4684C5.29111 80.8925 5.44596 81.3133 5.38045 81.7531C5.22049 82.8412 3.70944 82.9738 2.81099 82.6375Z" fill="white" fill-opacity="0.03"/>
</svg>
