<svg width="126" height="119" viewBox="0 0 126 119" fill="none" xmlns="http://www.w3.org/2000/svg">
<path d="M80.3843 50.8558C78.99 38.6418 76.0063 26.6388 71.2016 15.1858C69.6241 11.4248 67.9248 5.9828 63.8302 3.8308C63.8205 3.7628 63.8248 3.6958 63.8119 3.6268C63.7828 3.4758 63.7268 3.3368 63.6815 3.1928C63.6319 2.9028 63.5544 2.6168 63.4294 2.3418C62.7904 0.940801 61.423 0.201797 60.0244 0.196797C59.0201 -0.245203 57.809 0.111803 56.9556 0.727803C55.5989 1.7068 54.8382 3.3308 54.793 4.9358C47.5811 10.2288 45.4249 19.2428 44.7299 27.4738C44.6599 28.3018 44.62 29.1358 44.565 29.9668C43.9487 34.9348 43.8237 39.9328 43.8851 44.6008C44.0791 59.3258 45.8602 74.0438 48.2987 88.5808C48.3008 88.5928 48.3095 88.5968 48.3116 88.6078C48.525 90.2968 49.1165 92.0248 49.5508 93.5948C49.6693 94.0728 49.7868 94.5518 49.9139 95.0278C50.3266 96.8058 50.7522 98.8518 51.569 100.5C52.8847 104.39 54.5818 108.092 57.1431 111.38C58.2604 113.259 59.5233 115.047 60.9834 116.652C64.4961 120.515 69.0056 118.777 72.3976 115.629C79.6623 108.886 79.8714 97.4578 80.631 88.5928C81.7086 76.0388 81.8152 63.3908 80.3843 50.8558ZM79.5578 76.9028C79.3746 82.3018 78.9835 87.6948 78.4232 93.0708C77.9437 97.6698 77.4426 102.327 75.8824 106.739C74.5074 110.625 71.3169 116.453 66.3979 117.275C62.2732 117.965 59.7442 111.758 58.351 109.979C51.2242 97.3808 49.6251 82.7558 47.9506 68.8918C46.7966 59.3408 46.2083 49.7388 46.2956 40.1278C46.3354 35.6828 46.2094 30.1218 46.9205 24.5908C47.2276 23.2418 47.5789 21.8998 47.9862 20.5688C49.4096 15.9108 51.4257 10.4598 55.1367 6.8578C55.989 8.8908 58.4145 9.5758 60.5879 8.7398C62.2085 8.1168 63.4283 6.8228 63.7774 5.2908C63.9336 5.3978 64.0942 5.4878 64.2472 5.6128C66.5348 7.4838 67.7115 10.4848 68.8493 13.0238C73.2769 22.9008 76.0839 33.3888 77.7368 43.9628C79.4447 54.8618 79.9306 65.9008 79.5578 76.9028Z" fill="white" fill-opacity="0.03"/>
<path d="M106.817 20.7735C106.037 18.7975 104.447 17.6475 102.558 17.0555C102.513 16.8135 102.342 16.5965 101.991 16.5205C91.9954 14.3675 82.7836 19.7075 75.4725 25.5065C74.7915 26.0465 74.1289 26.6095 73.4565 27.1615C69.2358 30.2705 65.3394 33.7225 61.8256 37.0635C50.7432 47.6025 40.789 59.1795 31.4371 71.0585C31.4296 71.0685 31.4317 71.0765 31.4263 71.0865C30.2906 72.4205 29.392 74.0305 28.5019 75.4265C28.2218 75.8425 27.9395 76.2575 27.6668 76.6785C26.6044 78.2065 25.3459 79.9325 24.6681 81.6345C22.6348 85.2495 21.0142 88.9795 20.3202 92.9855C19.6791 95.0475 19.2093 97.1415 19.0186 99.2335C18.5596 104.27 23.0712 106 27.8694 106C30.5449 106 33.1224 105.452 35.6029 104.553C36.2882 105.423 37.2342 106.107 38.3452 106.412C41.6607 107.32 44.4731 104.46 44.2867 101.509C44.2587 101.058 44.1563 100.599 44.0011 100.146C47.7132 97.6625 51.1484 94.7735 54.2915 92.2865C64.6186 84.1145 74.3304 75.2415 82.8698 65.4385C91.1905 55.8875 98.2256 45.4415 103.554 34.1905C105.38 30.3335 108.521 25.0925 106.817 20.7735ZM103.54 31.1185C99.1448 41.0085 93.1386 50.2665 86.2511 58.8285C79.1523 67.6545 71.0848 75.7785 62.4387 83.3135C58.1954 87.0105 53.811 90.5675 49.3177 94.0015C47.3048 95.5395 45.2737 97.0815 43.1563 98.5065C41.9915 96.8735 40.0531 95.7315 37.8948 96.2525C36.2364 96.6525 35.2548 97.9945 34.8788 99.5365C34.3378 100.624 34.3335 101.858 34.7333 102.988C30.8359 104.424 25.7359 105.393 22.3729 103.225C18.9313 101.006 21.8719 94.9575 22.2426 92.7855C26.8016 79.2005 36.814 67.8105 46.1939 56.9075C52.6558 49.3965 59.5553 42.2205 66.9396 35.4825C70.3553 32.3655 74.5028 28.3505 79.2191 24.9065C80.4647 24.1545 81.7351 23.4365 83.0368 22.7615C87.7855 20.3025 93.6494 17.6255 99.2245 17.7315C99.4163 17.7355 99.607 17.7455 99.7967 17.7585C100.103 17.7845 100.411 17.8295 100.719 17.8695C103.489 18.3235 105.732 19.9275 105.931 22.8575C106.124 25.6815 104.67 28.5765 103.54 31.1185Z" fill="white" fill-opacity="0.03"/>
<path d="M124.302 56.0902C124.454 55.8892 124.499 55.6242 124.309 55.3392C118.882 47.2582 108.299 44.9882 98.712 44.2912C97.8198 44.2262 96.9211 44.1892 96.0257 44.1382C90.6725 43.5662 85.287 43.4502 80.2571 43.5072C64.3916 43.6872 48.5314 45.3402 32.8674 47.6032C32.8544 47.6052 32.8501 47.6132 32.8383 47.6152C31.0183 47.8132 29.1563 48.3622 27.4646 48.7652C26.9496 48.8752 26.4334 48.9842 25.9205 49.1022C24.0047 49.4852 21.8001 49.8802 20.0243 50.6382C15.8327 51.8592 11.8437 53.4342 8.30076 55.8112C6.27608 56.8482 4.34946 58.0202 2.62002 59.3752C-1.54247 62.6352 0.330271 66.8202 3.72341 69.9682C10.9892 76.7102 23.3032 76.9042 32.8555 77.6092C46.3839 78.6072 60.0125 78.7062 73.5193 77.3792C85.2913 76.2222 96.878 73.8742 108.025 70.2022C108.223 70.4242 108.444 70.6312 108.694 70.8082C109.494 71.3732 110.391 71.6502 111.29 71.6892C111.891 71.9832 112.713 71.9202 113.273 71.6432C113.606 71.4782 113.892 71.2522 114.139 70.9892C114.878 70.5642 115.519 69.9602 115.976 69.2132C116.358 68.5892 116.568 67.8992 116.628 67.1952C119.874 65.9462 123.094 64.2912 124.483 61.5122C125.435 59.6042 125.187 57.7472 124.302 56.0902ZM122.268 62.4062C120.792 63.9612 118.661 64.9612 116.552 65.8012C116.256 64.2022 115.248 62.6982 113.741 61.8862C110.629 60.2082 108.065 62.8632 107.389 65.5282C107.36 65.6412 107.345 65.7542 107.327 65.8672C106.84 66.8622 106.862 68.0642 107.321 69.1102C98.7669 71.8432 89.8859 73.7202 80.9446 74.9242C69.2006 76.5062 57.3057 76.9572 45.4507 76.6112C39.6332 76.4412 33.822 76.0792 28.0292 75.5582C23.0737 75.1132 18.0556 74.6482 13.3016 73.2002C9.11429 71.9242 2.83445 68.9632 1.94872 64.3982C1.20523 60.5702 7.89345 58.2232 9.81038 56.9302C23.3851 50.3162 39.144 48.8322 54.0839 47.2782C64.3754 46.2072 74.7218 45.6612 85.078 45.7422C89.8676 45.7792 95.8597 45.6622 101.82 46.3222C103.273 46.6072 104.719 46.9342 106.153 47.3112C111.385 48.6882 117.571 50.6432 121.432 54.3772C121.564 54.5062 121.691 54.6382 121.815 54.7722C122.011 54.9912 122.196 55.2252 122.383 55.4552C123.995 57.5972 124.359 60.2032 122.268 62.4062Z" fill="white" fill-opacity="0.03"/>
<path d="M57.8045 79.6863C68.096 87.4083 79.3519 93.9373 91.4752 98.8823C95.6301 100.577 101.276 103.492 105.93 101.91C108.059 101.186 109.299 99.7113 109.936 97.9583C110.197 97.9163 110.431 97.7583 110.513 97.4313C112.833 88.1553 107.079 79.6063 100.831 72.8223C100.249 72.1903 99.6428 71.5753 99.048 70.9513C95.698 67.0333 91.9784 63.4183 88.3783 60.1573C77.0222 49.8723 64.5477 40.6343 51.7477 31.9553C51.7369 31.9483 51.7283 31.9503 51.7175 31.9453C50.2801 30.8913 48.5453 30.0573 47.0411 29.2313C46.5928 28.9713 46.1456 28.7093 45.692 28.4563C44.0455 27.4703 42.1857 26.3023 40.3518 25.6733C36.4565 23.7863 32.4373 22.2823 28.1207 21.6383C25.8989 21.0433 23.6425 20.6073 21.3883 20.4303C15.9608 20.0043 14.0967 24.1913 14.0967 28.6443C14.0978 38.1793 22.6566 46.3973 28.8739 53.1653C37.6806 62.7483 47.2426 71.7613 57.8045 79.6863ZM38.5437 60.7253C34.559 56.7873 30.7273 52.7183 27.027 48.5483C23.8623 44.9823 20.6675 41.3603 18.409 37.2163C16.4198 33.5663 14.2357 27.3513 17.0868 23.5423C19.4779 20.3473 25.9958 23.0773 28.3362 23.4213C42.9745 27.6523 55.2475 36.9443 66.9958 45.6493C75.0892 51.6463 82.8215 58.0493 90.0819 64.9023C93.4406 68.0723 97.7669 71.9213 101.478 76.2983C102.288 77.4543 103.062 78.6333 103.789 79.8413C106.439 84.2483 109.323 89.6903 109.209 94.8643C109.205 95.0423 109.194 95.2193 109.18 95.3943C109.152 95.6783 109.104 95.9643 109.06 96.2503C108.571 98.8213 106.843 100.903 103.686 101.087C100.643 101.265 97.5233 99.9163 94.7842 98.8673C84.1275 94.7883 74.1517 89.2143 64.9259 82.8223C55.4167 76.2363 46.6618 68.7493 38.5437 60.7253Z" fill="white" fill-opacity="0.03"/>
<path d="M75.2582 59.0626C73.6516 49.4786 59.2375 47.7926 53.2539 54.8606C52.337 55.9446 51.6775 57.2236 51.2831 58.5826C49.7045 62.7426 50.989 67.7146 56.0566 70.6146C56.8378 71.0616 57.6578 71.3966 58.5015 71.6336C59.8484 72.0686 61.2514 72.2406 62.5832 72.0406C69.5311 71.6006 76.3842 65.7756 75.2582 59.0626ZM61.6619 69.6796C60.1361 69.4606 58.6685 69.2496 57.2473 68.4346C60.3214 69.1436 64.137 68.7796 66.5787 67.5596C66.8556 67.4216 66.8286 66.9336 66.4838 66.8886C64.6057 66.6416 62.7858 67.0356 60.9044 67.1036C58.9799 67.1726 57.1255 66.8946 55.2269 66.7386C54.9295 66.3806 54.6741 65.9936 54.4478 65.5916C57.7214 66.3676 62.1511 66.5006 64.68 64.6706C64.8406 64.5546 64.7361 64.3106 64.5648 64.2656C62.9345 63.8416 61.2503 64.3046 59.5941 64.4386C57.6923 64.5926 55.7646 64.5576 53.8724 64.3046C53.6117 63.5626 53.4684 62.7846 53.4209 62.0006C56.7591 63.4936 61.9679 64.2596 64.6865 61.6176C64.9624 61.3496 64.7436 60.9726 64.3827 60.9376C62.5605 60.7596 60.7417 61.4226 58.9207 61.5216C57.0802 61.6206 55.1795 61.4226 53.4253 60.8716C53.4834 60.0636 53.6709 59.2686 53.964 58.5116C56.7333 60.8186 61.4916 60.6346 64.6585 59.0386C64.832 58.9506 64.8104 58.6586 64.6003 58.6246C61.4906 58.1216 57.1686 59.3216 54.4403 57.5136C54.5308 57.3536 54.6116 57.1896 54.7151 57.0366C55.1795 56.3486 55.771 55.7476 56.4456 55.2276C58.7407 58.0406 63.4355 58.5846 66.6972 56.4516C66.9666 56.2756 66.8545 55.9306 66.5356 55.8986C63.5099 55.5976 59.8301 56.5216 57.3529 54.6106C58.5705 53.8826 59.9896 53.3996 61.4604 53.1466C61.9313 53.5556 62.4571 53.8896 63.1812 54.1316C64.5809 54.5996 66.1897 54.6756 67.6271 54.3296C67.9008 54.2636 67.9967 53.8486 67.7111 53.7296C66.9633 53.4186 66.138 53.2196 65.2975 53.0396C69.0387 53.4886 72.3208 55.5886 72.7023 59.5446C73.2464 65.1566 67.4278 69.6726 61.6619 69.6796Z" fill="white" fill-opacity="0.03"/>
</svg>
