<svg width="522" height="98" viewBox="0 0 522 98" fill="none" xmlns="http://www.w3.org/2000/svg">
<path d="M8.93356 93.2005L26.584 86.6286C29.9599 81.1135 38.8424 86.1408 47.279 88.745C55.7157 91.3493 64.8677 91.8582 73.1589 93.2856C81.4501 94.713 88.8805 97.059 95.7245 86.7756C102.568 76.4922 109.796 69.3093 118.231 71.8999C126.666 74.4904 136.308 86.8546 144.716 89.222C153.123 91.5895 160.295 83.9603 167.556 77.0493C174.817 70.1383 195.785 84.8168 203.414 80.8858C211.043 76.9548 205.333 54.4142 213.337 53.5192C221.341 52.6242 229.441 52.5034 237.406 51.2887C245.37 50.0739 253.2 47.7653 260.64 42.3052C268.08 36.8452 275.131 28.2337 283.097 27.0366C291.064 25.8396 299.947 32.057 308.709 37.2896C317.47 42.5221 332.225 42.0546 340.392 42.4749C348.559 42.8951 350.137 44.2032 357.363 37.0064C364.588 29.8096 371.345 18.8232 378.415 10.3692C385.485 1.91521 397.995 9.83191 406.183 10.4282C414.372 11.0246 418.239 4.30052 426.735 7.3828C435.231 10.4651 443.228 9.51532 451.152 7.96764C459.075 6.41996 464.779 10.2949 472.612 8.0133C480.445 5.73168 485.432 8.72432 489.34 7.5155L513.735 10.657" stroke="#C7C7C7" stroke-width="3.5" stroke-linecap="round"/>
<circle cx="478" cy="7" r="5.5" fill="#C7C7C7" stroke="#FCFCFC" stroke-width="3"/>
</svg>
