<svg width="36" height="32" viewBox="0 0 36 32" fill="none" xmlns="http://www.w3.org/2000/svg">
<path d="M32.621 0H23.6221C22.7272 0.000266548 21.869 0.357909 21.2362 0.994305C20.6034 1.6307 20.2478 2.49376 20.2475 3.39376V12.4438C20.2478 13.3438 20.6034 14.2069 21.2362 14.8433C21.869 15.4797 22.7272 15.8373 23.6221 15.8376H29.2464V20.3626C29.2464 21.5627 28.7724 22.7137 27.9286 23.5623C27.0848 24.4109 25.9403 24.8876 24.747 24.8876H24.1851C23.9632 24.8869 23.7435 24.9304 23.5384 25.0155C23.3333 25.1005 23.147 25.2255 22.9901 25.3833C22.8333 25.541 22.709 25.7284 22.6244 25.9346C22.5398 26.1409 22.4966 26.3619 22.4973 26.585V29.9788C22.4966 30.2018 22.5398 30.4229 22.6244 30.6291C22.709 30.8353 22.8333 31.0227 22.9901 31.1805C23.147 31.3382 23.3333 31.4632 23.5384 31.5483C23.7435 31.6334 23.9632 31.6768 24.1851 31.6761H24.748C26.2253 31.6764 27.6882 31.3839 29.053 30.8154C30.4179 30.247 31.658 29.4136 32.7026 28.3629C33.7471 27.3123 34.5755 26.065 35.1406 24.6923C35.7056 23.3195 35.9962 21.8483 35.9956 20.3626V3.39376C35.9954 2.49376 35.6397 1.6307 35.0069 0.994305C34.3741 0.357909 33.5159 0.000266548 32.621 0ZM12.3735 0H3.37459C2.47967 0.000266548 1.62149 0.357909 0.988687 0.994305C0.355886 1.6307 0.000265042 2.49376 0 3.39376L0 12.4438C0.000265042 13.3438 0.355886 14.2069 0.988687 14.8433C1.62149 15.4797 2.47967 15.8373 3.37459 15.8376H8.99891V20.3626C8.99891 21.5627 8.52486 22.7137 7.68105 23.5623C6.83724 24.4109 5.69278 24.8876 4.49945 24.8876H3.93752C3.71569 24.8869 3.49592 24.9304 3.29085 25.0155C3.08578 25.1005 2.89946 25.2255 2.7426 25.3833C2.58574 25.541 2.46144 25.7284 2.37686 25.9346C2.29227 26.1409 2.24907 26.3619 2.24973 26.585V29.9788C2.2492 30.2018 2.2925 30.4227 2.37715 30.6288C2.46179 30.8349 2.58611 31.0222 2.74295 31.1798C2.8998 31.3375 3.08608 31.4624 3.29108 31.5474C3.49609 31.6324 3.71578 31.6758 3.93752 31.6751H4.49945C5.97676 31.6755 7.43966 31.3832 8.80458 30.8148C10.1695 30.2465 11.4097 29.4132 12.4543 28.3627C13.4989 27.3121 14.3275 26.0649 14.8926 24.6922C15.4578 23.3195 15.7485 21.8483 15.7481 20.3626V3.39376C15.7478 2.49376 15.3922 1.6307 14.7594 0.994305C14.1266 0.357909 13.2684 0.000266548 12.3735 0Z" fill="black" fill-opacity="0.1"/>
</svg>
