<svg width="168" height="33" viewBox="0 0 168 33" fill="none" xmlns="http://www.w3.org/2000/svg">
<path d="M123.83 28.3091C119.91 28.7703 115.974 29.1581 112.009 29.4276C110.429 29.5351 108.846 29.4002 107.265 29.3654C100.799 29.167 94.36 28.7718 87.9345 28.3062C81.1105 27.8116 74.3054 27.2221 67.5167 26.5585C61.9333 26.0131 56.3932 25.3333 50.8721 24.5912C45.9767 23.9333 41.0999 23.2229 36.2969 22.3377C29.5272 21.0895 22.9039 19.6013 16.6584 17.5274C13.9278 16.6208 11.3208 15.5806 9.04035 14.2807C7.13407 13.1943 5.6023 11.912 5.04836 10.2825C4.6535 9.12057 5.23479 8.18312 6.75388 7.45735C8.65749 6.54786 10.8426 5.99173 13.0784 5.50478C18.3043 4.36683 23.7126 3.74359 29.1993 3.35793C36.0124 2.87905 42.8575 2.75767 49.7045 2.66136C54.8694 2.58865 60.0333 2.48945 65.1989 2.42814C69.3229 2.37884 73.447 2.4329 77.57 2.49648C81.7558 2.5609 85.9392 2.67192 90.1129 2.87698C94.6648 3.10109 99.2034 3.40701 103.721 3.83224C107.899 4.22578 112.085 4.59156 116.242 5.06608C120.656 5.56981 125.044 6.15121 129.412 6.78999C132.627 7.26037 135.829 7.77135 138.997 8.35089C143.883 9.24401 148.732 10.2117 153.188 11.7776C155.789 12.6926 157.61 14.074 158.157 15.9338C158.75 17.9311 157.586 19.6108 155.215 20.9626C152.417 22.5576 149.116 23.6423 145.617 24.5203C138.58 26.2863 131.267 27.4336 123.83 28.3091ZM167.801 29.436C167.511 29.3433 167.204 29.103 166.898 29.2575C166.374 29.5204 165.797 29.4889 165.243 29.4479C163.273 29.3022 161.325 29.4487 159.371 29.5589C156.359 29.7289 153.344 29.9288 150.319 29.9356C145.29 29.947 140.258 29.9068 135.229 29.8899C134.305 29.8868 133.384 29.8894 132.464 29.8894C132.564 29.7935 132.671 29.7639 132.781 29.7467C134.492 29.4835 136.199 29.2082 137.883 28.8834C142.746 27.9464 147.618 27.016 152.087 25.4555C155.539 24.2498 158.724 22.8377 160.915 20.7183C162.519 19.1666 163.089 17.4669 162.409 15.684C161.755 13.9717 159.884 12.7055 157.676 11.7045C154.492 10.2595 150.923 9.21543 147.278 8.29952C141.972 6.9677 136.479 5.9969 130.95 5.10709C125.537 4.23655 120.08 3.48551 114.605 2.78729C107.854 1.92648 101.04 1.29889 94.1926 0.80904C88.7949 0.422958 83.3755 0.236755 77.9489 0.118073C70.1523 -0.0530128 62.3558 -0.0273323 54.5589 0.125526C46.1884 0.289776 37.8093 0.359158 29.4685 0.893749C23.0523 1.3051 16.7205 2.00125 10.6308 3.36062C7.17675 4.13154 3.94381 5.14085 1.46658 6.92772C-0.13521 8.08307 -0.357655 9.31547 0.47309 10.6726C1.3025 12.0276 2.76356 13.122 4.40771 14.1193C6.70118 15.5106 9.35517 16.6108 12.0739 17.6469C19.3695 20.4271 27.1253 22.5771 35.309 24.133C40.3095 25.0837 45.3704 25.8928 50.4582 26.6405C55.0588 27.3169 59.6731 27.9634 64.3324 28.4543C70.9277 29.149 77.5357 29.8049 84.1843 30.2828C84.5241 30.3072 84.8606 30.3505 85.1981 30.3853C85.007 30.4679 84.835 30.4677 84.6625 30.4679C74.6376 30.48 64.6236 30.2722 54.621 29.8723C47.8022 29.5995 40.9885 29.2807 34.1711 28.9955C28.9319 28.7764 23.6916 28.5583 18.435 28.7068C16.8032 28.7527 15.1724 28.8037 13.4082 28.8565C13.687 29.0276 13.8991 29.0284 14.0888 29.0506C16.3153 29.3093 18.5391 29.5765 20.7712 29.8141C24.8815 30.2519 29.0133 30.5999 33.1613 30.866C38.1031 31.1836 43.0385 31.5394 47.996 31.7592C52.5116 31.9595 57.0215 32.2082 61.5391 32.3888C66.076 32.5701 70.6179 32.7072 75.1592 32.8391C81.2252 33.015 87.2932 33.0641 93.3639 32.8984C99.3482 32.7351 105.323 32.5025 111.284 32.1297C112.956 32.0253 114.611 31.8068 116.303 31.8288C119.707 31.8725 123.113 31.9332 126.518 31.952C129.299 31.9677 132.084 31.9421 134.865 31.9178C137.81 31.8921 140.765 31.882 143.683 31.6407C149.309 31.1751 154.968 30.9483 160.611 30.6167C161.925 30.5396 163.259 30.516 164.537 30.283C165.46 30.1142 166.361 29.9083 167.331 29.8627C167.595 29.8505 167.865 29.8225 167.982 29.6448C168.048 29.5421 167.922 29.4754 167.801 29.436Z" fill="url(#paint0_linear_1_308)"/>
<defs>
<linearGradient id="paint0_linear_1_308" x1="1.74479e-06" y1="-4.7108e-06" x2="197.376" y2="73.1045" gradientUnits="userSpaceOnUse">
<stop stop-color="#F33A56"/>
<stop offset="1" stop-color="#6E039F"/>
</linearGradient>
</defs>
</svg>
