<svg width="353" height="82" viewBox="0 0 353 82" fill="none" xmlns="http://www.w3.org/2000/svg">
<path d="M260.19 70.3438C251.953 71.49 243.683 72.4534 235.352 73.123C232.032 73.3901 228.705 73.0551 225.384 72.9686C211.798 72.4756 198.268 71.4936 184.767 70.3366C170.429 69.1075 156.13 67.6428 141.865 65.9937C130.134 64.6386 118.493 62.9494 106.892 61.1054C96.6058 59.4707 86.3588 57.7054 76.2666 55.5057C62.0422 52.4042 48.1254 48.7063 35.0026 43.5529C29.2649 41.3001 23.7872 38.7154 18.9955 35.4853C14.99 32.7859 11.7715 29.5995 10.6076 25.5506C9.77788 22.6632 10.9993 20.3338 14.1912 18.5304C18.191 16.2704 22.7823 14.8885 27.4801 13.6785C38.4608 10.8509 49.8247 9.30226 61.3534 8.34393C75.6689 7.15401 90.0517 6.85239 104.439 6.61306C115.291 6.43241 126.141 6.18589 136.995 6.03355C145.661 5.91106 154.326 6.04538 162.989 6.20338C171.784 6.36345 180.575 6.63932 189.344 7.14885C198.909 7.70573 208.445 8.4659 217.938 9.52254C226.717 10.5004 235.512 11.4093 244.247 12.5884C253.521 13.8401 262.74 15.2848 271.92 16.8721C278.675 18.0409 285.402 19.3106 292.059 20.7507C302.325 22.97 312.514 25.3745 321.876 29.2655C327.342 31.5393 331.168 34.9717 332.317 39.593C333.565 44.556 331.119 48.73 326.137 52.0888C320.258 56.0523 313.32 58.7476 305.969 60.9293C291.184 65.3174 275.816 68.1682 260.19 70.3438ZM352.583 73.1441C351.973 72.9135 351.328 72.3165 350.684 72.7005C349.584 73.3536 348.371 73.2754 347.208 73.1735C343.067 72.8116 338.974 73.1755 334.868 73.4493C328.54 73.8719 322.206 74.3685 315.85 74.3855C305.283 74.4138 294.708 74.314 284.141 74.2718C282.2 74.2641 280.266 74.2708 278.332 74.2708C278.542 74.0325 278.766 73.9588 278.998 73.9161C282.592 73.262 286.18 72.578 289.719 71.771C299.936 69.4426 310.174 67.1307 319.564 63.2531C326.816 60.2572 333.509 56.7481 338.112 51.482C341.483 47.626 342.681 43.4026 341.252 38.9723C339.878 34.7174 335.947 31.5712 331.308 29.0838C324.616 25.4934 317.118 22.8989 309.459 20.6231C298.31 17.3137 286.769 14.9014 275.151 12.6904C263.777 10.5272 252.31 8.66096 240.808 6.92599C226.623 4.78699 212.304 3.22755 197.917 2.01034C186.575 1.05098 175.188 0.588295 163.785 0.293388C147.403 -0.131737 131.021 -0.0679245 114.639 0.311905C97.0507 0.720047 79.4445 0.892456 61.9189 2.22083C48.4373 3.24297 35.1329 4.9728 22.3373 8.35062C15.0797 10.2662 8.2867 12.7742 3.08157 17.2143C-0.284102 20.0852 -0.751502 23.1475 0.994053 26.5197C2.7368 29.8867 5.80677 32.6062 9.26144 35.0844C14.0805 38.5415 19.657 41.2754 25.3695 43.8498C40.6989 50.7583 56.9955 56.1006 74.191 59.9669C84.698 62.3292 95.3318 64.3396 106.022 66.1975C115.689 67.8785 125.385 69.4848 135.175 70.7046C149.033 72.4308 162.917 74.0608 176.887 75.2481C177.601 75.3089 178.308 75.4164 179.017 75.5029C178.616 75.7082 178.254 75.7077 177.892 75.7082C156.828 75.7381 135.786 75.2219 114.769 74.228C100.442 73.5502 86.1247 72.7581 71.8001 72.0494C60.7914 71.5049 49.7806 70.9629 38.7354 71.3319C35.3067 71.4462 31.8801 71.5728 28.1731 71.7041C28.7589 72.1292 29.2046 72.1312 29.6034 72.1863C34.2815 72.8291 38.9541 73.4931 43.6442 74.0834C52.2809 75.1714 60.9624 76.0361 69.6782 76.6974C80.0619 77.4864 90.4322 78.3707 100.849 78.9167C110.337 79.4144 119.813 80.0325 129.305 80.4813C138.838 80.9317 148.382 81.2724 157.924 81.6002C170.67 82.0372 183.42 82.1592 196.175 81.7474C208.749 81.3419 221.304 80.7639 233.829 79.8375C237.343 79.5781 240.82 79.0351 244.375 79.0896C251.528 79.1982 258.683 79.349 265.838 79.3959C271.682 79.435 277.533 79.3712 283.377 79.311C289.565 79.2471 295.773 79.2219 301.905 78.6223C313.727 77.4653 325.618 76.9018 337.475 76.0778C340.236 75.8863 343.039 75.8276 345.723 75.2486C347.664 74.8292 349.556 74.3176 351.595 74.2044C352.148 74.174 352.716 74.1045 352.961 73.6629C353.101 73.4076 352.835 73.2419 352.583 73.1441Z" fill="url(#paint0_linear_1_1212)"/>
<defs>
<linearGradient id="paint0_linear_1_1212" x1="-4.49999" y1="-2.41336e-05" x2="723.5" y2="162.5" gradientUnits="userSpaceOnUse">
<stop stop-color="#F33A56"/>
<stop offset="1" stop-color="#6E039F"/>
</linearGradient>
</defs>
</svg>
