<svg width="520" height="74" viewBox="0 0 520 74" fill="none" xmlns="http://www.w3.org/2000/svg">
<path d="M383.026 62.8663C370.93 63.8906 358.784 64.7517 346.548 65.3501C341.673 65.5888 336.786 65.2894 331.908 65.2121C311.956 64.7715 292.085 63.8938 272.256 62.8598C251.197 61.7614 230.197 60.4524 209.248 58.9786C192.018 57.7676 174.921 56.258 157.884 54.6099C142.777 53.149 127.727 51.5714 112.905 49.6055C92.0143 46.8337 71.5751 43.5289 52.3021 38.9232C43.8753 36.91 35.8304 34.6 28.793 31.7133C22.9104 29.3008 18.1834 26.4531 16.474 22.8346C15.2555 20.2542 17.0493 18.1724 21.7371 16.5606C27.6115 14.5409 34.3546 13.3059 41.2541 12.2245C57.381 9.69749 74.0709 8.31345 91.0026 7.457C112.027 6.39356 133.151 6.124 154.28 5.91012C170.219 5.74867 186.155 5.52836 202.095 5.39221C214.822 5.28274 227.548 5.40278 240.272 5.54399C253.189 5.68704 266.099 5.93358 278.978 6.38895C293.025 6.88663 307.031 7.56601 320.972 8.51032C333.867 9.38425 346.784 10.1965 359.612 11.2503C373.233 12.369 386.773 13.6601 400.255 15.0786C410.176 16.1232 420.056 17.2579 429.833 18.5449C444.91 20.5283 459.874 22.6772 473.623 26.1546C481.651 28.1867 487.27 31.2542 488.958 35.3843C490.79 39.8197 487.198 43.55 479.881 46.5518C471.246 50.094 461.057 52.5028 450.261 54.4526C428.546 58.3742 405.977 60.922 383.026 62.8663V62.8663ZM518.721 65.3689C517.826 65.1629 516.879 64.6293 515.932 64.9725C514.316 65.5562 512.536 65.4862 510.827 65.3952C504.745 65.0718 498.735 65.397 492.704 65.6417C483.411 66.0193 474.107 66.4632 464.772 66.4784C449.253 66.5037 433.723 66.4145 418.203 66.3767C415.352 66.3698 412.512 66.3758 409.671 66.3758C409.98 66.1629 410.309 66.0971 410.649 66.0589C415.929 65.4743 421.198 64.863 426.395 64.1418C441.4 62.0609 456.436 59.9947 470.227 56.5293C480.879 53.8519 490.707 50.7158 497.469 46.0095C502.419 42.5634 504.179 38.7889 502.08 34.8295C500.062 31.027 494.289 28.2152 487.476 25.9922C477.647 22.7835 466.635 20.4648 455.387 18.4308C439.013 15.4733 422.062 13.3174 404.999 11.3414C388.296 9.40816 371.455 7.74032 354.561 6.18978C333.728 4.27816 312.699 2.88448 291.568 1.79666C274.911 0.939285 258.187 0.525782 241.441 0.262222C217.381 -0.117709 193.322 -0.06068 169.261 0.278775C143.43 0.643527 117.572 0.797609 91.8331 1.98478C72.0331 2.89827 52.4935 4.44422 33.7011 7.46297C23.0421 9.17496 13.0654 11.4164 5.42082 15.3845C0.477768 17.9502 -0.208685 20.687 2.35495 23.7007C4.91447 26.7098 9.42321 29.1402 14.497 31.355C21.5745 34.4445 29.7646 36.8879 38.1543 39.1886C60.6681 45.3627 84.6023 50.1372 109.857 53.5924C125.288 55.7037 140.905 57.5003 156.606 59.1608C170.804 60.663 185.043 62.0986 199.421 63.1887C219.774 64.7314 240.166 66.1881 260.683 67.2493C261.732 67.3036 262.77 67.3997 263.812 67.477C263.222 67.6605 262.691 67.66 262.159 67.6605C231.222 67.6872 200.32 67.2258 169.452 66.3376C148.41 65.7319 127.383 65.024 106.345 64.3906C90.1772 63.904 74.006 63.4196 57.7844 63.7494C52.7487 63.8515 47.7161 63.9647 42.2719 64.082C43.1323 64.4619 43.7868 64.4637 44.3724 64.513C51.2431 65.0875 58.1055 65.6808 64.9937 66.2084C77.6781 67.1807 90.4283 67.9535 103.229 68.5445C118.479 69.2497 133.71 70.0399 149.008 70.5279C162.943 70.9727 176.86 71.5251 190.801 71.9262C204.802 72.3287 218.818 72.6332 232.832 72.9262C251.551 73.3167 270.277 73.4257 289.011 73.0577C307.478 72.6953 325.916 72.1787 344.312 71.3508C349.472 71.119 354.578 70.6337 359.799 70.6825C370.305 70.7795 380.814 70.9143 391.322 70.9561C399.905 70.9911 408.498 70.9341 417.081 70.8803C426.169 70.8232 435.287 70.8007 444.292 70.2648C461.654 69.2308 479.119 68.7272 496.532 67.9907C500.587 67.8196 504.704 67.7672 508.646 67.2497C511.496 66.8749 514.275 66.4177 517.27 66.3165C518.083 66.2893 518.917 66.2272 519.277 65.8326C519.483 65.6044 519.092 65.4563 518.721 65.3689Z" fill="url(#paint0_linear_1_989)"/>
<defs>
<linearGradient id="paint0_linear_1_989" x1="35.2961" y1="-11.6181" x2="875.166" y2="87.9953" gradientUnits="userSpaceOnUse">
<stop stop-color="#F33A56"/>
<stop offset="1" stop-color="#6E039F"/>
</linearGradient>
</defs>
</svg>
