<svg width="130" height="33" viewBox="0 0 130 33" fill="none" xmlns="http://www.w3.org/2000/svg">
<path d="M95.8205 28.3091C92.7873 28.7703 89.7416 29.1581 86.6734 29.4276C85.451 29.5351 84.2257 29.4002 83.0025 29.3654C77.9994 29.167 73.0167 28.7718 68.0446 28.3062C62.764 27.8116 57.4982 27.2221 52.2451 26.5585C47.9245 26.0131 43.6376 25.3333 39.3653 24.5912C35.5772 23.9333 31.8035 23.2229 28.0869 22.3377C22.8484 21.0895 17.7232 19.6013 12.8905 17.5274C10.7774 16.6208 8.76015 15.5806 6.99551 14.2807C5.52041 13.1943 4.33511 11.912 3.90647 10.2825C3.60092 9.12057 4.05073 8.18312 5.22621 7.45735C6.69925 6.54786 8.39009 5.99173 10.1202 5.50478C14.164 4.36683 18.3491 3.74359 22.5947 3.35793C27.8667 2.87905 33.1635 2.75767 38.4618 2.66136C42.4585 2.58865 46.4543 2.48945 50.4515 2.42814C53.6427 2.37884 56.834 2.4329 60.0244 2.49648C63.2634 2.5609 66.5005 2.67192 69.7302 2.87698C73.2525 3.10109 76.7645 3.40701 80.2603 3.83224C83.4936 4.22578 86.7326 4.59156 89.9493 5.06608C93.3648 5.56981 96.7599 6.15121 100.141 6.78999C102.628 7.26037 105.106 7.77135 107.557 8.35089C111.338 9.24401 115.09 10.2117 118.538 11.7776C120.551 12.6926 121.96 14.074 122.383 15.9338C122.842 17.9311 121.942 19.6108 120.107 20.9626C117.942 22.5576 115.387 23.6423 112.68 24.5203C107.235 26.2863 101.575 27.4336 95.8205 28.3091ZM129.846 29.436C129.622 29.3433 129.384 29.103 129.147 29.2575C128.742 29.5204 128.295 29.4889 127.867 29.4479C126.342 29.3022 124.835 29.4487 123.322 29.5589C120.992 29.7289 118.659 29.9288 116.319 29.9356C112.427 29.947 108.533 29.9068 104.641 29.8899C103.926 29.8868 103.214 29.8894 102.502 29.8894C102.579 29.7935 102.662 29.7639 102.747 29.7467C104.071 29.4835 105.392 29.2082 106.695 28.8834C110.458 27.9464 114.228 27.016 117.686 25.4555C120.357 24.2498 122.822 22.8377 124.517 20.7183C125.759 19.1666 126.2 17.4669 125.673 15.684C125.168 13.9717 123.72 12.7055 122.012 11.7045C119.547 10.2595 116.786 9.21543 113.965 8.29952C109.859 6.9677 105.609 5.9969 101.33 5.10709C97.1418 4.23655 92.9189 3.48551 88.6827 2.78729C83.4587 1.92648 78.1857 1.29889 72.8871 0.80904C68.7104 0.422958 64.5168 0.236755 60.3176 0.118073C54.2845 -0.0530128 48.2515 -0.0273323 42.2182 0.125526C35.7411 0.289776 29.2572 0.359158 22.803 0.893749C17.8381 1.3051 12.9385 2.00125 8.22621 3.36062C5.55344 4.13154 3.05176 5.14085 1.13486 6.92772C-0.104627 8.08307 -0.276757 9.31547 0.366082 10.6726C1.00789 12.0276 2.13847 13.122 3.41073 14.1193C5.18544 15.5106 7.23912 16.6108 9.34286 17.6469C14.9883 20.4271 20.9898 22.5771 27.3225 24.133C31.1919 25.0837 35.108 25.8928 39.0451 26.6405C42.6051 27.3169 46.1756 27.9634 49.781 28.4543C54.8845 29.149 59.9978 29.8049 65.1426 30.2828C65.4056 30.3072 65.666 30.3505 65.9271 30.3853C65.7792 30.4679 65.6461 30.4677 65.5127 30.4679C57.7553 30.48 50.0063 30.2722 42.2662 29.8723C36.9898 29.5995 31.7173 29.2807 26.442 28.9955C22.3878 28.7764 18.3328 28.5583 14.2652 28.7068C13.0025 28.7527 11.7405 28.8037 10.3754 28.8565C10.5911 29.0276 10.7552 29.0284 10.9021 29.0506C12.6249 29.3093 14.3457 29.5765 16.0729 29.8141C19.2536 30.2519 22.4507 30.5999 25.6605 30.866C29.4845 31.1836 33.3036 31.5394 37.1398 31.7592C40.634 31.9595 44.1238 32.2082 47.6195 32.3888C51.1302 32.5701 54.6448 32.7072 58.1589 32.8391C62.8528 33.015 67.5483 33.0641 72.2458 32.8984C76.8766 32.7351 81.5 32.5025 86.1127 32.1297C87.4066 32.0253 88.6871 31.8068 89.9963 31.8288C92.6306 31.8725 95.2657 31.9332 97.9006 31.952C100.053 31.9677 102.208 31.9421 104.36 31.9178C106.639 31.8921 108.925 31.882 111.183 31.6407C115.537 31.1751 119.916 30.9483 124.282 30.6167C125.299 30.5396 126.332 30.516 127.32 30.283C128.035 30.1142 128.732 29.9083 129.482 29.8627C129.686 29.8505 129.895 29.8225 129.986 29.6448C130.037 29.5421 129.939 29.4754 129.846 29.436Z" fill="url(#paint0_linear_1_21)"/>
<defs>
<linearGradient id="paint0_linear_1_21" x1="1.35014e-06" y1="-4.7108e-06" x2="160.5" y2="46" gradientUnits="userSpaceOnUse">
<stop stop-color="#F33A56"/>
<stop offset="1" stop-color="#6E039F"/>
</linearGradient>
</defs>
</svg>
