<svg width="21" height="18" viewBox="0 0 21 18" fill="none" xmlns="http://www.w3.org/2000/svg">
<path fill-rule="evenodd" clip-rule="evenodd" d="M10.351 5.3125L10.3956 6.04791L9.65232 5.95786C6.94668 5.61266 4.58295 4.44201 2.57602 2.47592L1.59485 1.50038L1.34213 2.22078C0.806947 3.82667 1.14887 5.52261 2.26383 6.66325C2.85848 7.2936 2.72468 7.38365 1.69892 7.00844C1.34213 6.88837 1.02994 6.79832 1.00021 6.84335C0.896144 6.94841 1.25293 8.31416 1.53539 8.85446C1.92191 9.60488 2.70982 10.3403 3.57206 10.7755L4.3005 11.1207L3.43826 11.1357C2.60575 11.1357 2.57602 11.1507 2.66522 11.4659C2.96254 12.4415 4.13697 13.477 5.44519 13.9273L6.3669 14.2425L5.56412 14.7227C4.37483 15.4131 2.97741 15.8033 1.57999 15.8333C0.91101 15.8484 0.360962 15.9084 0.360962 15.9534C0.360962 16.1035 2.17463 16.944 3.23013 17.2741C6.39663 18.2497 10.1578 17.8295 12.9823 16.1635C14.9893 14.9779 16.9962 12.6216 17.9328 10.3403C18.4382 9.12461 18.9437 6.90338 18.9437 5.83779C18.9437 5.14741 18.9883 5.05736 19.8208 4.2319C20.3114 3.75163 20.7722 3.22634 20.8614 3.07625C21.0101 2.7911 20.9952 2.7911 20.237 3.04624C18.9734 3.49649 18.795 3.43646 19.4194 2.76108C19.8802 2.28081 20.4303 1.41033 20.4303 1.15519C20.4303 1.11016 20.2073 1.1852 19.9546 1.32028C19.687 1.47036 19.0923 1.69549 18.6464 1.83056L17.8436 2.0857L17.1151 1.59043C16.7138 1.32028 16.1488 1.02011 15.8515 0.930063C15.0933 0.719946 13.9338 0.749963 13.2499 0.990096C11.3917 1.66547 10.2172 3.40644 10.351 5.3125Z" fill="white"/>
</svg>
