<svg width="24" height="17" viewBox="0 0 24 17" fill="none" xmlns="http://www.w3.org/2000/svg">
<path fill-rule="evenodd" clip-rule="evenodd" d="M20.6037 0.984261C21.5792 1.25193 22.3474 2.04062 22.6081 3.04218C23.0818 4.8574 23.0818 8.64486 23.0818 8.64486C23.0818 8.64486 23.0818 12.4322 22.6081 14.2475C22.3474 15.2491 21.5792 16.0378 20.6037 16.3056C18.8359 16.7919 11.7468 16.7919 11.7468 16.7919C11.7468 16.7919 4.65762 16.7919 2.88974 16.3056C1.91428 16.0378 1.14607 15.2491 0.885367 14.2475C0.411743 12.4322 0.411743 8.64486 0.411743 8.64486C0.411743 8.64486 0.411743 4.8574 0.885367 3.04218C1.14607 2.04062 1.91428 1.25193 2.88974 0.984261C4.65762 0.497803 11.7468 0.497803 11.7468 0.497803C11.7468 0.497803 18.8359 0.497803 20.6037 0.984261ZM9.62148 5.45681V12.5412L15.289 8.99914L9.62148 5.45681Z" fill="white"/>
</svg>
