<svg width="23" height="24" viewBox="0 0 23 24" fill="none" xmlns="http://www.w3.org/2000/svg">
<path fill-rule="evenodd" clip-rule="evenodd" d="M11.4689 0.955566C8.39047 0.955566 8.00413 0.969027 6.79505 1.02405C5.58833 1.07931 4.76464 1.27035 4.04391 1.55066C3.29839 1.84018 2.66598 2.22747 2.03594 2.85775C1.40542 3.48779 1.01814 4.1202 0.727672 4.86549C0.446655 5.58645 0.255374 6.41037 0.20106 7.61662C0.146981 8.82571 0.132812 9.21228 0.132812 12.2907C0.132812 15.3692 0.146509 15.7543 0.201296 16.9634C0.256791 18.1701 0.447835 18.9938 0.727908 19.7145C1.01766 20.4601 1.40495 21.0925 2.03523 21.7225C2.66504 22.353 3.29745 22.7413 4.0425 23.0308C4.7637 23.3111 5.58762 23.5021 6.79411 23.5574C8.00319 23.6124 8.38929 23.6259 11.4675 23.6259C14.5462 23.6259 14.9313 23.6124 16.1404 23.5574C17.3471 23.5021 18.1718 23.3111 18.893 23.0308C19.6383 22.7413 20.2697 22.353 20.8995 21.7225C21.53 21.0925 21.9173 20.4601 22.2078 19.7148C22.4864 18.9938 22.6777 18.1699 22.7344 16.9636C22.7887 15.7546 22.8029 15.3692 22.8029 12.2907C22.8029 9.21228 22.7887 8.82594 22.7344 7.61686C22.6777 6.41014 22.4864 5.58645 22.2078 4.86572C21.9173 4.1202 21.53 3.48779 20.8995 2.85775C20.269 2.22723 19.6385 1.83994 18.8923 1.55066C18.1696 1.27035 17.3455 1.07931 16.1388 1.02405C14.9297 0.969027 14.5448 0.955566 11.4654 0.955566H11.4689ZM10.452 2.99822C10.7538 2.99775 11.0906 2.99822 11.4689 2.99822C14.4953 2.99822 14.8541 3.00909 16.0492 3.0634C17.1544 3.11394 17.7542 3.29861 18.1538 3.45376C18.6827 3.65921 19.0599 3.9048 19.4564 4.30153C19.8531 4.69826 20.0987 5.0761 20.3046 5.60507C20.4598 6.00417 20.6447 6.60398 20.695 7.70916C20.7493 8.90408 20.7611 9.26302 20.7611 12.2881C20.7611 15.3132 20.7493 15.6721 20.695 16.867C20.6444 17.9722 20.4598 18.572 20.3046 18.9711C20.0992 19.5001 19.8531 19.8767 19.4564 20.2732C19.0596 20.67 18.683 20.9156 18.1538 21.121C17.7547 21.2769 17.1544 21.4611 16.0492 21.5116C14.8543 21.5659 14.4953 21.5777 11.4689 21.5777C8.44214 21.5777 8.08343 21.5659 6.88852 21.5116C5.78334 21.4606 5.18352 21.2759 4.78372 21.1208C4.25475 20.9153 3.87691 20.6697 3.48018 20.273C3.08345 19.8763 2.83785 19.4994 2.63193 18.9702C2.47678 18.5711 2.29187 17.9713 2.24158 16.8661C2.18726 15.6712 2.1764 15.3122 2.1764 12.2853C2.1764 9.2583 2.18726 8.90124 2.24158 7.70633C2.29211 6.60115 2.47678 6.00133 2.63193 5.60177C2.83738 5.07279 3.08345 4.69496 3.48018 4.29822C3.87691 3.90149 4.25475 3.6559 4.78372 3.44998C5.18328 3.29412 5.78334 3.10992 6.88852 3.05915C7.93418 3.01192 8.33942 2.99775 10.452 2.99539V2.99822ZM17.5195 4.88034C16.7685 4.88034 16.1593 5.48889 16.1593 6.24008C16.1593 6.99104 16.7685 7.6003 17.5195 7.6003C18.2704 7.6003 18.8797 6.99104 18.8797 6.24008C18.8797 5.48913 18.2704 4.88034 17.5195 4.88034ZM11.4689 6.46962C8.25423 6.46962 5.64786 9.07599 5.64786 12.2907C5.64786 15.5054 8.25423 18.1106 11.4689 18.1106C14.6836 18.1106 17.2891 15.5054 17.2891 12.2907C17.2891 9.07599 14.6836 6.46962 11.4689 6.46962ZM11.4689 8.51231C13.5555 8.51231 15.2473 10.2038 15.2473 12.2907C15.2473 14.3773 13.5555 16.0691 11.4689 16.0691C9.38204 16.0691 7.6905 14.3773 7.6905 12.2907C7.6905 10.2038 9.38204 8.51231 11.4689 8.51231Z" fill="white"/>
</svg>
