<svg width="148" height="33" viewBox="0 0 148 33" fill="none" xmlns="http://www.w3.org/2000/svg">
<path d="M109.088 28.3091C105.635 28.7703 102.167 29.1581 98.6744 29.4276C97.2827 29.5351 95.8877 29.4002 94.4951 29.3654C88.7993 29.167 83.1267 28.7718 77.4661 28.3062C71.4544 27.8116 65.4595 27.2221 59.479 26.5585C54.5602 26.0131 49.6797 25.3333 44.8159 24.5912C40.5033 23.9333 36.2071 23.2229 31.9758 22.3377C26.012 21.0895 20.1772 19.6013 14.6753 17.5274C12.2697 16.6208 9.9731 15.5806 7.96411 14.2807C6.28477 13.1943 4.93536 11.912 4.44736 10.2825C4.09951 9.12057 4.6116 8.18312 5.94984 7.45735C7.62683 6.54786 9.55179 5.99173 11.5214 5.50478C16.1252 4.36683 20.8897 3.74359 25.7232 3.35793C31.7252 2.87905 37.7554 2.75767 43.7873 2.66136C48.3373 2.58865 52.8865 2.48945 57.4371 2.42814C61.0702 2.37884 64.7033 2.4329 68.3355 2.49648C72.0229 2.5609 75.7083 2.67192 79.3852 2.87698C83.3952 3.10109 87.3935 3.40701 91.3732 3.83224C95.0542 4.22578 98.7417 4.59156 102.404 5.06608C106.292 5.56981 110.157 6.15121 114.006 6.78999C116.838 7.26037 119.659 7.77135 122.45 8.35089C126.754 9.24401 131.026 10.2117 134.951 11.7776C137.243 12.6926 138.847 14.074 139.328 15.9338C139.851 17.9311 138.826 19.6108 136.737 20.9626C134.272 22.5576 131.364 23.6423 128.282 24.5203C122.083 26.2863 115.64 27.4336 109.088 28.3091ZM147.825 29.436C147.569 29.3433 147.299 29.103 147.029 29.2575C146.568 29.5204 146.059 29.4889 145.572 29.4479C143.835 29.3022 142.12 29.4487 140.398 29.5589C137.745 29.7289 135.089 29.9288 132.424 29.9356C127.994 29.947 123.56 29.9068 119.13 29.8899C118.316 29.8868 117.505 29.8894 116.694 29.8894C116.783 29.7935 116.877 29.7639 116.974 29.7467C118.481 29.4835 119.985 29.2082 121.469 28.8834C125.752 27.9464 130.045 27.016 133.981 25.4555C137.022 24.2498 139.828 22.8377 141.758 20.7183C143.171 19.1666 143.674 17.4669 143.074 15.684C142.499 13.9717 140.85 12.7055 138.905 11.7045C136.1 10.2595 132.956 9.21543 129.745 8.29952C125.071 6.9677 120.232 5.9969 115.361 5.10709C110.592 4.23655 105.785 3.48551 100.962 2.78729C95.0146 1.92648 89.0114 1.29889 82.9792 0.80904C78.2241 0.422958 73.4499 0.236755 68.6692 0.118073C61.8008 -0.0530128 54.9325 -0.0273323 48.0638 0.125526C40.6898 0.289776 33.3082 0.359158 25.9603 0.893749C20.308 1.3051 14.73 2.00125 9.36523 3.36062C6.32238 4.13154 3.47431 5.14085 1.29199 6.92772C-0.119114 8.08307 -0.315077 9.31547 0.41677 10.6726C1.14744 12.0276 2.43456 13.122 3.88298 14.1193C5.90342 15.5106 8.24146 16.6108 10.6365 17.6469C17.0636 20.4271 23.8961 22.5771 31.1056 24.133C35.5108 25.0837 39.9691 25.8928 44.4513 26.6405C48.5042 27.3169 52.5692 27.9634 56.6738 28.4543C62.4839 29.149 68.3052 29.8049 74.1624 30.2828C74.4617 30.3072 74.7582 30.3505 75.0555 30.3853C74.8871 30.4679 74.7356 30.4677 74.5837 30.4679C65.7521 30.48 56.9303 30.2722 48.1185 29.8723C42.1115 29.5995 36.1089 29.2807 30.1032 28.9955C25.4876 28.7764 20.8712 28.5583 16.2404 28.7068C14.8028 28.7527 13.3661 28.8037 11.812 28.8565C12.0576 29.0276 12.2444 29.0284 12.4116 29.0506C14.373 29.3093 16.332 29.5765 18.2984 29.8141C21.9195 30.2519 25.5593 30.5999 29.2135 30.866C33.567 31.1836 37.9149 31.5394 42.2822 31.7592C46.2602 31.9595 50.2332 32.2082 54.213 32.3888C58.2098 32.5701 62.211 32.7072 66.2116 32.8391C71.5555 33.015 76.9011 33.0641 82.2491 32.8984C87.521 32.7351 92.7847 32.5025 98.036 32.1297C99.5091 32.0253 100.967 31.8068 102.457 31.8288C105.456 31.8725 108.456 31.9332 111.456 31.952C113.906 31.9677 116.359 31.9421 118.81 31.9178C121.404 31.8921 124.007 31.882 126.578 31.6407C131.534 31.1751 136.52 30.9483 141.491 30.6167C142.648 30.5396 143.824 30.516 144.949 30.283C145.763 30.1142 146.556 29.9083 147.411 29.8627C147.643 29.8505 147.881 29.8225 147.984 29.6448C148.043 29.5421 147.931 29.4754 147.825 29.436Z" fill="url(#paint0_linear_1_575)"/>
<defs>
<linearGradient id="paint0_linear_1_575" x1="1.53708e-06" y1="-4.7108e-06" x2="178.707" y2="58.3098" gradientUnits="userSpaceOnUse">
<stop stop-color="#F33A56"/>
<stop offset="1" stop-color="#6E039F"/>
</linearGradient>
</defs>
</svg>
