<svg width="43" height="43" viewBox="0 0 43 43" fill="none" xmlns="http://www.w3.org/2000/svg">
<path opacity="0.1" fill-rule="evenodd" clip-rule="evenodd" d="M0.278809 21.2534C0.278809 9.51562 9.79419 0.000244141 21.532 0.000244141C33.2698 0.000244141 42.7852 9.51562 42.7852 21.2534C42.7852 32.9913 33.2698 42.5066 21.532 42.5066C9.79419 42.5066 0.278809 32.9913 0.278809 21.2534Z" fill="white"/>
<path fill-rule="evenodd" clip-rule="evenodd" d="M30.389 13.9473C31.3644 14.2149 32.1326 15.0036 32.3933 16.0052C32.8671 17.8204 32.8671 21.6079 32.8671 21.6079C32.8671 21.6079 32.8671 25.3952 32.3933 27.2106C32.1326 28.2121 31.3644 29.0008 30.389 29.2686C28.6212 29.7549 21.5321 29.7549 21.5321 29.7549C21.5321 29.7549 14.4429 29.7549 12.675 29.2686C11.6996 29.0008 10.9314 28.2121 10.6706 27.2106C10.197 25.3952 10.197 21.6079 10.197 21.6079C10.197 21.6079 10.197 17.8204 10.6706 16.0052C10.9314 15.0036 11.6996 14.2149 12.675 13.9473C14.4429 13.4608 21.5321 13.4608 21.5321 13.4608C21.5321 13.4608 28.6212 13.4608 30.389 13.9473ZM19.4068 18.4198V25.5042L25.0743 21.9622L19.4068 18.4198Z" fill="white"/>
</svg>
