<svg width="43" height="43" viewBox="0 0 43 43" fill="none" xmlns="http://www.w3.org/2000/svg">
<path opacity="0.1" fill-rule="evenodd" clip-rule="evenodd" d="M0 21.2532C0 9.51538 9.51538 0 21.2532 0C32.991 0 42.5064 9.51538 42.5064 21.2532C42.5064 32.991 32.991 42.5064 21.2532 42.5064C9.51538 42.5064 0 32.991 0 21.2532Z" fill="white"/>
<path fill-rule="evenodd" clip-rule="evenodd" d="M21.2541 9.91858C18.1756 9.91858 17.7893 9.93204 16.5802 9.98706C15.3735 10.0423 14.5498 10.2334 13.8291 10.5137C13.0835 10.8032 12.4511 11.1905 11.8211 11.8208C11.1906 12.4508 10.8033 13.0832 10.5128 13.8285C10.2318 14.5495 10.0405 15.3734 9.98622 16.5796C9.93214 17.7887 9.91797 18.1753 9.91797 21.2537C9.91797 24.3322 9.93167 24.7173 9.98645 25.9264C10.0419 27.1331 10.233 27.9568 10.5131 28.6776C10.8028 29.4231 11.1901 30.0555 11.8204 30.6855C12.4502 31.316 13.0826 31.7043 13.8277 31.9938C14.5489 32.2741 15.3728 32.4651 16.5793 32.5204C17.7883 32.5754 18.1744 32.5889 21.2527 32.5889C24.3313 32.5889 24.7165 32.5754 25.9256 32.5204C27.1323 32.4651 27.9569 32.2741 28.6781 31.9938C29.4234 31.7043 30.0549 31.316 30.6847 30.6855C31.3152 30.0555 31.7025 29.4231 31.9929 28.6778C32.2716 27.9568 32.4629 27.1329 32.5196 25.9267C32.5739 24.7176 32.588 24.3322 32.588 21.2537C32.588 18.1753 32.5739 17.789 32.5196 16.5799C32.4629 15.3732 32.2716 14.5495 31.9929 13.8287C31.7025 13.0832 31.3152 12.4508 30.6847 11.8208C30.0542 11.1902 29.4236 10.803 28.6774 10.5137C27.9548 10.2334 27.1306 10.0423 25.9239 9.98706C24.7148 9.93204 24.3299 9.91858 21.2505 9.91858H21.2541ZM20.2372 11.9612C20.539 11.9608 20.8757 11.9612 21.254 11.9612C24.2805 11.9612 24.6392 11.9721 25.8344 12.0264C26.9395 12.0769 27.5394 12.2616 27.9389 12.4168C28.4679 12.6222 28.845 12.8678 29.2415 13.2645C29.6383 13.6613 29.8839 14.0391 30.0898 14.5681C30.2449 14.9672 30.4298 15.567 30.4801 16.6722C30.5344 17.8671 30.5462 18.226 30.5462 21.2511C30.5462 24.2762 30.5344 24.6351 30.4801 25.83C30.4296 26.9352 30.2449 27.535 30.0898 27.9341C29.8843 28.4631 29.6383 28.8398 29.2415 29.2363C28.8448 29.633 28.4681 29.8786 27.9389 30.084C27.5398 30.2399 26.9395 30.4241 25.8344 30.4746C24.6395 30.5289 24.2805 30.5407 21.254 30.5407C18.2273 30.5407 17.8686 30.5289 16.6737 30.4746C15.5685 30.4236 14.9687 30.2389 14.5689 30.0838C14.0399 29.8783 13.6621 29.6327 13.2653 29.236C12.8686 28.8393 12.623 28.4624 12.4171 27.9332C12.2619 27.5341 12.077 26.9343 12.0267 25.8291C11.9724 24.6342 11.9616 24.2752 11.9616 21.2483C11.9616 18.2213 11.9724 17.8643 12.0267 16.6693C12.0773 15.5642 12.2619 14.9643 12.4171 14.5648C12.6225 14.0358 12.8686 13.658 13.2653 13.2612C13.6621 12.8645 14.0399 12.6189 14.5689 12.413C14.9684 12.2571 15.5685 12.0729 16.6737 12.0222C17.7193 11.9749 18.1246 11.9608 20.2372 11.9584V11.9612ZM27.3046 13.8433C26.5537 13.8433 25.9444 14.4519 25.9444 15.2031C25.9444 15.9541 26.5537 16.5633 27.3046 16.5633C28.0556 16.5633 28.6649 15.9541 28.6649 15.2031C28.6649 14.4521 28.0556 13.8433 27.3046 13.8433ZM21.2541 15.4326C18.0394 15.4326 15.433 18.039 15.433 21.2537C15.433 24.4684 18.0394 27.0736 21.2541 27.0736C24.4688 27.0736 27.0742 24.4684 27.0742 21.2537C27.0742 18.039 24.4688 15.4326 21.2541 15.4326ZM21.254 17.4753C23.3407 17.4753 25.0324 19.1669 25.0324 21.2537C25.0324 23.3403 23.3407 25.0321 21.254 25.0321C19.1672 25.0321 17.4757 23.3403 17.4757 21.2537C17.4757 19.1669 19.1672 17.4753 21.254 17.4753Z" fill="white"/>
</svg>
