<svg width="44" height="43" viewBox="0 0 44 43" fill="none" xmlns="http://www.w3.org/2000/svg">
<path opacity="0.1" fill-rule="evenodd" clip-rule="evenodd" d="M0.519287 21.2534C0.519287 9.51562 10.0347 0.000244141 21.7725 0.000244141C33.5103 0.000244141 43.0257 9.51562 43.0257 21.2534C43.0257 32.9913 33.5103 42.5066 21.7725 42.5066C10.0347 42.5066 0.519287 32.9913 0.519287 21.2534Z" fill="white"/>
<path fill-rule="evenodd" clip-rule="evenodd" d="M21.1363 17.2754L21.1809 18.0108L20.4376 17.9207C17.732 17.5756 15.3682 16.4049 13.3613 14.4388L12.3801 13.4633L12.1274 14.1837C11.5922 15.7896 11.9341 17.4855 13.0491 18.6261C13.6438 19.2565 13.51 19.3465 12.4842 18.9713C12.1274 18.8513 11.8152 18.7612 11.7855 18.8062C11.6814 18.9113 12.0382 20.2771 12.3207 20.8174C12.7072 21.5678 13.4951 22.3032 14.3573 22.7384L15.0858 23.0836L14.2235 23.0986C13.391 23.0986 13.3613 23.1136 13.4505 23.4288C13.7478 24.4043 14.9222 25.4399 16.2305 25.8902L17.1522 26.2053L16.3494 26.6856C15.1601 27.376 13.7627 27.7662 12.3653 27.7962C11.6963 27.8112 11.1462 27.8713 11.1462 27.9163C11.1462 28.0664 12.9599 28.9068 14.0154 29.237C17.1819 30.2126 20.943 29.7923 23.7676 28.1264C25.7746 26.9408 27.7815 24.5844 28.7181 22.3032C29.2235 21.0875 29.729 18.8663 29.729 17.8007C29.729 17.1103 29.7736 17.0202 30.6061 16.1948C31.0966 15.7145 31.5575 15.1892 31.6467 15.0391C31.7954 14.754 31.7805 14.754 31.0223 15.0091C29.7587 15.4594 29.5803 15.3993 30.2047 14.724C30.6655 14.2437 31.2156 13.3732 31.2156 13.1181C31.2156 13.0731 30.9926 13.1481 30.7399 13.2832C30.4723 13.4333 29.8776 13.6584 29.4316 13.7935L28.6289 14.0486L27.9004 13.5533C27.499 13.2832 26.9341 12.983 26.6368 12.893C25.8786 12.6828 24.7191 12.7129 24.0352 12.953C22.1769 13.6284 21.0025 15.3693 21.1363 17.2754Z" fill="white"/>
</svg>
